<svg width="146" height="37" viewBox="0 0 146 37" fill="none" xmlns="http://www.w3.org/2000/svg">
<g clip-path="url(#clip0_1638_5639)">
<path d="M111.545 12.7629H108.547C108.199 12.7629 107.866 12.612 107.634 12.3497L106.419 10.9706C106.238 10.7654 105.977 10.6467 105.704 10.6467C105.431 10.6467 105.17 10.764 104.989 10.9706L103.946 12.1548C103.605 12.5417 103.114 12.7644 102.599 12.7644H86.1926C85.7258 14.1024 85.4209 15.5152 85.2998 16.9822H100.789C101.062 16.9822 101.321 16.8708 101.51 16.673L102.952 15.162C103.132 14.973 103.381 14.866 103.641 14.866H103.701C103.974 14.866 104.235 14.9832 104.416 15.1899L105.631 16.5689C105.863 16.8313 106.194 16.9822 106.544 16.9822H119.187C119.066 15.5152 118.761 14.1024 118.294 12.7644H111.545V12.7629Z" fill="white"/>
<path d="M94.6751 25.8472C94.948 25.8472 95.2076 25.7358 95.3958 25.538L96.8387 24.027C97.0181 23.838 97.2676 23.731 97.5273 23.731H97.5871C97.8599 23.731 98.1211 23.8482 98.302 24.0549L99.5172 25.4339C99.7492 25.6963 100.08 25.8472 100.43 25.8472H117.564C118.206 24.515 118.675 23.0847 118.956 21.5884H102.511C102.162 21.5884 101.83 21.4374 101.598 21.1751L100.382 19.7961C100.201 19.5909 99.9403 19.4722 99.6675 19.4722C99.3947 19.4722 99.1335 19.5894 98.9526 19.7961L97.9095 20.9802C97.5681 21.3671 97.078 21.5899 96.563 21.5899H85.5352C85.8153 23.0876 86.285 24.5165 86.9269 25.8487H94.6751V25.8472Z" fill="white"/>
<path d="M106.828 8.15528C107.101 8.15528 107.361 8.0439 107.549 7.84605L108.992 6.33509C109.171 6.14604 109.421 6.03906 109.68 6.03906H109.74C110.013 6.03906 110.274 6.1563 110.455 6.36294L111.67 7.742C111.902 8.00433 112.233 8.15528 112.584 8.15528H115.841C112.738 4.01223 107.803 1.33179 102.244 1.33179C96.686 1.33179 91.7505 4.01223 88.6475 8.15528H106.83H106.828Z" fill="white"/>
<path d="M100.284 30.0693H95.8285C95.4798 30.0693 95.1472 29.9184 94.9152 29.6561L93.7 28.277C93.5191 28.0718 93.2579 27.9531 92.9851 27.9531C92.7123 27.9531 92.4512 28.0704 92.2703 28.277L91.2271 29.4612C90.8858 29.8481 90.3956 30.0708 89.8806 30.0708H89.8105C92.9151 33.4122 97.3341 35.5035 102.243 35.5035C107.152 35.5035 111.571 33.4122 114.676 30.0708H100.284V30.0693Z" fill="white"/>
<path d="M27.059 34.3984L23.5985 25.9555H8.13853L4.67803 34.3984H0.677734L15.8459 2.4353L31.0593 34.3984H27.059ZM9.44133 22.7504H22.2504L15.8255 9.13276L9.44279 22.7504H9.44133Z" fill="white"/>
<path d="M36.585 34.3984V2.4353H45.439C52.36 2.4353 56 5.64041 56 11.6447C56 17.6489 52.1353 20.7646 45.3938 20.7646H40.3154V34.3984H36.585ZM40.3154 17.4232H44.5403C49.8886 17.4232 52.2258 15.6631 52.2258 11.6447C52.2258 7.6262 49.8434 5.77524 44.5403 5.77524H40.3154V17.4232Z" fill="white"/>
<path d="M69.5481 5.8661H58.583V2.4353H84.245V5.8661H73.2785V34.3984H69.5481V5.8661Z" fill="white"/>
<path d="M124.439 28.5743L127.651 26.3848L127.899 26.9036C129.876 30.5147 132.034 31.9597 135.315 31.9597C138.955 31.9597 141.517 29.4317 141.517 26.3614C141.517 23.4714 140.078 21.531 134.326 19.1378C127.72 16.3841 125.472 13.5395 125.472 9.47707C125.472 5.05264 128.932 1.57642 134.909 1.57642C139.314 1.57642 142.325 3.47281 144.033 6.54309L141.426 8.34861L140.662 8.16835C139.314 6.04627 137.651 4.82695 134.819 4.82695C131.359 4.82695 129.336 6.76878 129.336 9.38621C129.336 11.8234 130.639 13.223 136.257 15.7964C143.583 19.1378 145.381 21.8915 145.381 26.316C145.381 31.1463 141.247 35.2542 135.359 35.2542C130.415 35.2542 126.999 33.3578 124.438 28.5729L124.439 28.5743Z" fill="white"/>
</g>
<defs>
<clipPath id="clip0_1638_5639">
<rect width="145.89" height="35.9904" fill="white" transform="translate(0.0546875 0.639893)"/>
</clipPath>
</defs>
</svg>
