<svg width="125" height="102" viewBox="0 0 125 102" fill="none" xmlns="http://www.w3.org/2000/svg">
<g filter="url(#filter0_dd_1451_5089)">
<path d="M35.2226 58C34.493 58 33.828 57.6284 33.4466 57.0064C33.0691 56.3902 33.0358 55.6391 33.3566 54.9936L54.0529 19.1364C54.4148 18.4244 55.1092 18 55.9092 18C56.7092 18 57.4016 18.4244 57.7654 19.1364L78.4617 54.9936C78.7806 55.6391 78.7473 56.3902 78.3717 57.0044C77.9903 57.6264 77.3272 57.998 76.5977 57.998L75.0916 57.9922C74.3463 57.9883 73.4779 57.245 72.7053 55.9501L55.9072 26.4088L39.207 55.7897C38.0255 58 37.3586 58 36.7111 58H35.2207H35.2226Z" fill="url(#paint0_linear_1451_5089)"/>
</g>
<g filter="url(#filter1_dd_1451_5089)">
<path d="M48.6738 24.543L46.4088 25.9259C44.3921 27.1562 42.6689 28.4061 41.1393 29.7381C36.5701 33.5758 32.6484 39.7763 34.178 44.9773L34.2151 45.1103L31.5413 49.478L31.2909 48.991C30.8469 48.1205 30.5105 47.1993 30.2973 46.2506C28.2689 36.768 36.9555 28.4159 46.1525 25.3763L48.6738 24.5411V24.543Z" fill="url(#paint1_linear_1451_5089)"/>
</g>
<g filter="url(#filter2_dd_1451_5089)">
<path d="M80.287 35.5356C80.0914 41.1023 76.7486 46.5654 70.8826 50.9272C70.0298 51.561 69.1398 52.1576 68.2323 52.7053C66.4347 53.7771 64.5413 54.6964 62.6107 55.4534C58.3721 57.1101 53.9985 57.9453 49.7403 57.9453C47.9252 57.9453 46.1335 57.7928 44.375 57.4876L43.6807 57.3722L46.3721 52.8167L46.5677 52.8343C51.1428 53.2862 56.3926 52.494 61.3452 50.6162C62.9354 50.0138 64.4396 49.3194 65.8166 48.5507C67.1017 47.8309 68.3085 47.0466 69.4156 46.2055C72.4063 43.9581 76.109 40.2358 76.7799 35.3087C77.5604 28.7052 71.5907 24.6192 65.7501 23.0055L63.045 22.2563L65.8459 22.4089C69.6719 22.6104 73.2279 23.9072 75.8528 26.0451C78.8122 28.4568 80.3418 31.7409 80.287 35.5356Z" fill="url(#paint2_linear_1451_5089)"/>
</g>
<defs>
<filter id="filter0_dd_1451_5089" x="1.1377" y="-14" width="121.541" height="116" filterUnits="userSpaceOnUse" color-interpolation-filters="sRGB">
<feFlood flood-opacity="0" result="BackgroundImageFix"/>
<feColorMatrix in="SourceAlpha" type="matrix" values="0 0 0 0 0 0 0 0 0 0 0 0 0 0 0 0 0 0 127 0" result="hardAlpha"/>
<feMorphology radius="6" operator="dilate" in="SourceAlpha" result="effect1_dropShadow_1451_5089"/>
<feOffset dx="4" dy="4"/>
<feGaussianBlur stdDeviation="15"/>
<feColorMatrix type="matrix" values="0 0 0 0 1 0 0 0 0 1 0 0 0 0 1 0 0 0 0.3 0"/>
<feBlend mode="normal" in2="BackgroundImageFix" result="effect1_dropShadow_1451_5089"/>
<feColorMatrix in="SourceAlpha" type="matrix" values="0 0 0 0 0 0 0 0 0 0 0 0 0 0 0 0 0 0 127 0" result="hardAlpha"/>
<feMorphology radius="6" operator="dilate" in="SourceAlpha" result="effect2_dropShadow_1451_5089"/>
<feOffset dx="8" dy="8"/>
<feGaussianBlur stdDeviation="15"/>
<feColorMatrix type="matrix" values="0 0 0 0 1 0 0 0 0 1 0 0 0 0 1 0 0 0 0.3 0"/>
<feBlend mode="normal" in2="effect1_dropShadow_1451_5089" result="effect2_dropShadow_1451_5089"/>
<feBlend mode="normal" in="SourceGraphic" in2="effect2_dropShadow_1451_5089" result="shape"/>
</filter>
<filter id="filter1_dd_1451_5089" x="-2" y="-7.45892" width="94.6738" height="100.937" filterUnits="userSpaceOnUse" color-interpolation-filters="sRGB">
<feFlood flood-opacity="0" result="BackgroundImageFix"/>
<feColorMatrix in="SourceAlpha" type="matrix" values="0 0 0 0 0 0 0 0 0 0 0 0 0 0 0 0 0 0 127 0" result="hardAlpha"/>
<feMorphology radius="6" operator="dilate" in="SourceAlpha" result="effect1_dropShadow_1451_5089"/>
<feOffset dx="4" dy="4"/>
<feGaussianBlur stdDeviation="15"/>
<feColorMatrix type="matrix" values="0 0 0 0 1 0 0 0 0 1 0 0 0 0 1 0 0 0 0.3 0"/>
<feBlend mode="normal" in2="BackgroundImageFix" result="effect1_dropShadow_1451_5089"/>
<feColorMatrix in="SourceAlpha" type="matrix" values="0 0 0 0 0 0 0 0 0 0 0 0 0 0 0 0 0 0 127 0" result="hardAlpha"/>
<feMorphology radius="6" operator="dilate" in="SourceAlpha" result="effect2_dropShadow_1451_5089"/>
<feOffset dx="8" dy="8"/>
<feGaussianBlur stdDeviation="15"/>
<feColorMatrix type="matrix" values="0 0 0 0 1 0 0 0 0 1 0 0 0 0 1 0 0 0 0.3 0"/>
<feBlend mode="normal" in2="effect1_dropShadow_1451_5089" result="effect2_dropShadow_1451_5089"/>
<feBlend mode="normal" in="SourceGraphic" in2="effect2_dropShadow_1451_5089" result="shape"/>
</filter>
<filter id="filter2_dd_1451_5089" x="11.6807" y="-9.74365" width="112.607" height="111.689" filterUnits="userSpaceOnUse" color-interpolation-filters="sRGB">
<feFlood flood-opacity="0" result="BackgroundImageFix"/>
<feColorMatrix in="SourceAlpha" type="matrix" values="0 0 0 0 0 0 0 0 0 0 0 0 0 0 0 0 0 0 127 0" result="hardAlpha"/>
<feMorphology radius="6" operator="dilate" in="SourceAlpha" result="effect1_dropShadow_1451_5089"/>
<feOffset dx="4" dy="4"/>
<feGaussianBlur stdDeviation="15"/>
<feColorMatrix type="matrix" values="0 0 0 0 1 0 0 0 0 1 0 0 0 0 1 0 0 0 0.3 0"/>
<feBlend mode="normal" in2="BackgroundImageFix" result="effect1_dropShadow_1451_5089"/>
<feColorMatrix in="SourceAlpha" type="matrix" values="0 0 0 0 0 0 0 0 0 0 0 0 0 0 0 0 0 0 127 0" result="hardAlpha"/>
<feMorphology radius="6" operator="dilate" in="SourceAlpha" result="effect2_dropShadow_1451_5089"/>
<feOffset dx="8" dy="8"/>
<feGaussianBlur stdDeviation="15"/>
<feColorMatrix type="matrix" values="0 0 0 0 1 0 0 0 0 1 0 0 0 0 1 0 0 0 0.3 0"/>
<feBlend mode="normal" in2="effect1_dropShadow_1451_5089" result="effect2_dropShadow_1451_5089"/>
<feBlend mode="normal" in="SourceGraphic" in2="effect2_dropShadow_1451_5089" result="shape"/>
</filter>
<linearGradient id="paint0_linear_1451_5089" x1="80.784" y1="9.96969" x2="23.2761" y2="15.5741" gradientUnits="userSpaceOnUse">
<stop stop-color="#00FFBD"/>
<stop offset="1" stop-color="#025B8C"/>
</linearGradient>
<linearGradient id="paint1_linear_1451_5089" x1="49.5369" y1="19.5348" x2="25.8298" y2="21.0544" gradientUnits="userSpaceOnUse">
<stop stop-color="#00FFBD"/>
<stop offset="1" stop-color="#025B8C"/>
</linearGradient>
<linearGradient id="paint2_linear_1451_5089" x1="81.9804" y1="15.0915" x2="35.6716" y2="19.1574" gradientUnits="userSpaceOnUse">
<stop stop-color="#00FFBD"/>
<stop offset="1" stop-color="#025B8C"/>
</linearGradient>
</defs>
</svg>
