<svg width="122" height="24" viewBox="0 0 122 24" fill="none" xmlns="http://www.w3.org/2000/svg">
    <path d="M31.1967 20.1523C26.9562 20.1523 23.483 16.9325 23.2893 12.8226C23.1889 10.6918 23.9399 8.67083 25.4049 7.1325C26.8706 5.5934 28.8457 4.74573 30.9682 4.74573H37.8537C38.296 4.74573 38.6557 5.10614 38.6557 5.54931V6.03038C38.6557 6.47355 38.296 6.83396 37.8537 6.83396H30.9682C29.4253 6.83396 27.9341 7.48286 26.8767 8.61437C25.8054 9.76136 25.2729 11.2579 25.3771 12.8295C25.5716 15.7646 28.107 18.064 31.1504 18.064H37.853C38.2952 18.064 38.6549 18.4244 38.6549 18.8676V19.3479C38.6549 19.7911 38.2952 20.1515 37.853 20.1515H31.1967V20.1523Z" fill="white"/>
    <path d="M69.7234 20.1477C68.9925 20.1477 68.2886 19.9837 67.6333 19.6596C66.6871 19.1987 65.9206 18.4276 65.4737 17.4886C65.1411 16.8312 64.9744 16.1282 64.9744 15.3896V5.55554C64.9744 5.11237 65.334 4.75195 65.7763 4.75195H66.2556C66.6979 4.75195 67.0575 5.11237 67.0575 5.55554V15.7051L67.0606 15.7314C67.2189 16.9426 68.1736 17.8993 69.3823 18.0579L69.4078 18.061H76.7124C77.1546 18.061 77.5143 18.4214 77.5143 18.8645V19.3448C77.5143 19.788 77.1546 20.1484 76.7124 20.1484H69.7219L69.7234 20.1477Z" fill="white"/>
    <path d="M5.17127 20.1477C4.72901 20.1477 4.36934 19.7872 4.36934 19.3441V18.8638C4.36934 18.4206 4.72901 18.0602 5.17127 18.0602H15.8943C16.6901 18.0602 17.4357 17.7052 17.9405 17.0849C18.4406 16.4708 18.6351 15.6688 18.4753 14.8838C18.2284 13.6741 17.1169 12.7963 15.8326 12.7963H7.68281C6.64933 12.7963 5.67682 12.4026 4.9459 11.688C4.7375 11.4884 4.57079 11.2912 4.43494 11.0816C3.96567 10.4087 3.72177 9.62991 3.72177 8.81705V8.72115C3.72177 6.53237 5.49853 4.75195 7.68281 4.75195H18.7725C19.2148 4.75195 19.5744 5.11237 19.5744 5.55554V6.04589C19.5744 6.48905 19.2148 6.84947 18.7725 6.84947H7.68359C6.64856 6.84947 5.80572 7.69327 5.80572 8.7312V8.81782C5.80572 9.85498 6.64779 10.6988 7.68359 10.6988H15.8951C17.2188 10.6988 18.4861 11.2611 19.3738 12.2425L19.3892 12.2595L19.4062 12.275C19.4517 12.3145 19.4934 12.3701 19.5412 12.4343C20.3802 13.4669 20.7438 14.7484 20.574 16.0563C20.2714 18.3897 18.1921 20.1492 15.7384 20.1492H5.17127V20.1477Z" fill="white"/>
    <path d="M81.0578 20.1685C80.7769 20.1685 80.5206 20.0246 80.374 19.7849C80.2289 19.5474 80.2158 19.2574 80.3393 19.0084L88.3107 5.16879C88.4504 4.89346 88.7175 4.72949 89.0255 4.72949C89.3334 4.72949 89.6005 4.89346 89.7402 5.16879L97.7124 19.0084C97.8351 19.2574 97.8228 19.5474 97.6777 19.7849C97.531 20.0246 97.2756 20.1685 96.9946 20.1685L96.415 20.1662C96.1279 20.1646 95.7929 19.8777 95.4957 19.3781L89.0262 7.97554L82.5938 19.3154C82.1392 20.1685 81.8814 20.1685 81.6328 20.1685H81.0586H81.0578Z" fill="white"/>
    <path d="M44.0284 20.1685C43.7405 20.1685 43.4781 20.0215 43.3276 19.7756C43.1786 19.532 43.1655 19.235 43.2921 18.9797L51.4588 4.80141C51.6016 4.51988 51.8756 4.35205 52.1913 4.35205C52.507 4.35205 52.7802 4.51988 52.9238 4.80141L61.0905 18.9797C61.2163 19.235 61.2032 19.532 61.055 19.7748C60.9045 20.0208 60.6429 20.1677 60.355 20.1677L59.7607 20.1654C59.4666 20.1639 59.1239 19.87 58.819 19.3579L52.1905 7.67698L45.6006 19.2945C45.1344 20.1685 44.8712 20.1685 44.6158 20.1685H44.0276H44.0284Z" fill="white"/>
    <path d="M114.715 20.1515C114.413 20.1515 114.139 19.9836 114.001 19.7137L113.986 19.6843L109.961 14.2658C109.371 13.3021 108.304 12.7042 107.172 12.7042H100.72C100.277 12.7042 99.9168 12.343 99.9168 11.8991V11.4219C99.9168 10.9779 100.277 10.6168 100.72 10.6168H112.87C113.16 10.6168 113.415 10.5588 113.653 10.4404C114.312 10.1457 114.748 9.47055 114.748 8.72575C114.748 8.23694 114.552 7.76052 114.197 7.38386L114.182 7.36839C113.815 7.01958 113.361 6.83551 112.87 6.83551H100.719C100.276 6.83551 99.916 6.47432 99.916 6.03038V5.55318C99.916 5.10923 100.276 4.74805 100.719 4.74805H112.87C113.927 4.74805 114.922 5.16105 115.671 5.91127C116.419 6.67 116.831 7.6708 116.831 8.72729C116.831 10.3406 115.905 11.7924 114.528 12.3407C113.703 12.6686 112.477 12.6849 112.239 12.6849H112.163L111.358 12.6679L115.986 19.0122C116.099 19.2574 116.084 19.5389 115.942 19.771C115.794 20.0107 115.539 20.1546 115.258 20.1546H114.714L114.715 20.1515Z" fill="white"/>
    <path d="M49.3363 6.93913L48.4425 7.48594C47.6467 7.97242 46.9668 8.46663 46.3632 8.99333C44.5602 10.5108 43.0127 12.9625 43.6162 15.019L43.6309 15.0716L42.5758 16.7987L42.477 16.6061C42.3018 16.2619 42.1691 15.8977 42.0849 15.5225C41.2845 11.773 44.7122 8.4705 48.3414 7.26861L49.3363 6.93835V6.93913Z" fill="white"/>
    <path d="M61.8106 11.2865C61.7334 13.4877 60.4144 15.6478 58.0997 17.3726C57.7631 17.6231 57.412 17.859 57.0538 18.0756C56.3445 18.4994 55.5974 18.8629 54.8356 19.1623C53.163 19.8173 51.4372 20.1476 49.7569 20.1476C49.0407 20.1476 48.3337 20.0873 47.6398 19.9666L47.3658 19.921L48.4278 18.1197L48.505 18.1266C50.3103 18.3053 52.3819 17.9921 54.3362 17.2496C54.9637 17.0114 55.5572 16.7368 56.1006 16.4329C56.6077 16.1482 57.0839 15.8381 57.5208 15.5055C58.7009 14.6169 60.162 13.145 60.4267 11.1968C60.7347 8.58573 58.3791 6.97006 56.0744 6.33199L55.0069 6.03577L56.1122 6.09609C57.6219 6.17576 59.0251 6.68853 60.0609 7.53388C61.2287 8.48751 61.8322 9.78608 61.8106 11.2865Z" fill="white"/>
</svg>
