<svg width="102" height="47" viewBox="0 0 102 47" fill="none" xmlns="http://www.w3.org/2000/svg">
<g clip-path="url(#clip0_1638_5618)">
<path fill-rule="evenodd" clip-rule="evenodd" d="M29.592 19.7921L29.5912 19.7941C31.477 22.1645 32.6039 25.1666 32.6039 28.4321C32.6039 31.7459 31.4432 34.7888 29.5066 37.1753L29.3398 37.3807L29.2957 37.1196C29.2581 36.8976 29.2139 36.6733 29.1625 36.4473C28.1934 32.1784 25.0356 28.5178 19.8383 25.5539C16.3287 23.5578 14.3198 21.1545 13.7923 18.4237C13.4517 16.6579 13.7049 14.8842 14.1944 13.365C14.6837 11.8464 15.4114 10.574 16.0298 9.80791L18.0519 7.32915C18.4065 6.89453 19.0699 6.89453 19.4246 7.32915L29.592 19.7921ZM32.7899 17.3161L19.2392 0.704662C18.9803 0.387509 18.496 0.387508 18.2373 0.704662L4.68597 17.3154L4.64224 17.3711C2.14855 20.4732 0.65625 24.4153 0.65625 28.7068C0.65625 38.7012 8.75161 46.8036 18.7382 46.8036C28.7247 46.8036 36.8201 38.7012 36.8201 28.7068C36.8201 24.4155 35.3277 20.4732 32.8342 17.3711L32.7899 17.3161ZM7.92837 19.7387L9.141 18.2521L9.17763 18.5264C9.20665 18.7437 9.24183 18.9621 9.28356 19.1815C10.0678 23.3065 12.8694 26.7461 17.5535 29.4099C21.6249 31.7328 23.9955 34.4041 24.6786 37.3338C24.9635 38.5564 25.0143 39.7594 24.8909 40.8111L24.8832 40.8761L24.8245 40.9049C22.9868 41.8049 20.921 42.31 18.7378 42.31C11.0799 42.31 4.8716 36.0968 4.8716 28.4321C4.8716 25.1413 6.01606 22.1174 7.92837 19.7387Z" fill="#F7F7F8"/>
</g>
<g clip-path="url(#clip1_1638_5618)">
<path d="M65.9028 15.9557C65.7176 14.3923 64.9668 13.1786 63.6503 12.3147C62.3338 11.4507 60.7189 11.0187 58.8059 11.0187C57.407 11.0187 56.1831 11.245 55.134 11.6975C54.0951 12.1501 53.2826 12.7724 52.6963 13.5643C52.1203 14.3563 51.8323 15.2563 51.8323 16.2643C51.8323 17.1077 52.0329 17.8328 52.434 18.4396C52.8455 19.0362 53.37 19.535 54.0077 19.9362C54.6454 20.327 55.314 20.651 56.0134 20.9081C56.7128 21.155 57.3556 21.3556 57.9419 21.5098L61.1509 22.3737C61.9738 22.5898 62.8891 22.8881 63.8971 23.2686C64.9154 23.6493 65.8874 24.1687 66.8131 24.8269C67.749 25.4749 68.5205 26.308 69.1272 27.3263C69.7341 28.3444 70.0375 29.5942 70.0375 31.0752C70.0375 32.7826 69.5902 34.3254 68.6953 35.7037C67.8107 37.082 66.5148 38.1773 64.8074 38.9899C63.1103 39.8025 61.0481 40.2088 58.6207 40.2088C56.3579 40.2088 54.3986 39.8435 52.7426 39.1133C51.0969 38.383 49.801 37.3648 48.8547 36.0586C47.9187 34.7523 47.3891 33.2352 47.2656 31.5073H51.2152C51.3181 32.7004 51.7192 33.6878 52.4186 34.4694C53.1283 35.2408 54.0231 35.8168 55.1031 36.1974C56.1934 36.5677 57.3659 36.7529 58.6207 36.7529C60.0812 36.7529 61.3927 36.5163 62.5549 36.0432C63.7172 35.5597 64.6376 34.8911 65.3166 34.0375C65.9954 33.1735 66.3347 32.1656 66.3347 31.0135C66.3347 29.9645 66.0417 29.1107 65.4553 28.4524C64.8691 27.7942 64.0977 27.2593 63.1411 26.8479C62.1846 26.4365 61.1509 26.0765 60.0401 25.7679L56.1522 24.6572C53.6837 23.9475 51.7295 22.9343 50.2895 21.6178C48.8496 20.3013 48.1296 18.5785 48.1296 16.4494C48.1296 14.6803 48.6079 13.1375 49.5644 11.821C50.5312 10.4941 51.8272 9.4656 53.4523 8.73534C55.0877 7.99479 56.9133 7.62451 58.9293 7.62451C60.9658 7.62451 62.776 7.98965 64.36 8.7199C65.944 9.43989 67.1987 10.4273 68.1244 11.6821C69.0604 12.9369 69.5541 14.3615 69.6056 15.9557H65.9028Z" fill="#F7F7F8"/>
<path d="M88.163 29.9644V15.9556H91.8041V39.6531H88.163V35.6418H87.9161C87.3607 36.8453 86.4968 37.8687 85.3242 38.712C84.1516 39.5451 82.6705 39.9617 80.8809 39.9617C79.3998 39.9617 78.0832 39.6377 76.9313 38.9897C75.7794 38.3315 74.8742 37.344 74.2159 36.0276C73.5577 34.7007 73.2285 33.0294 73.2285 31.0134V15.9556H76.8696V30.7666C76.8696 32.4946 77.353 33.8727 78.3198 34.9013C79.2969 35.9298 80.5415 36.4441 82.0534 36.4441C82.9586 36.4441 83.8791 36.2126 84.8151 35.7499C85.7613 35.2869 86.5532 34.5773 87.191 33.6207C87.8389 32.6642 88.163 31.4454 88.163 29.9644Z" fill="#F7F7F8"/>
<path d="M95.8657 39.6533V15.9557H99.5066V39.6533H95.8657ZM97.7169 12.0061C97.0073 12.0061 96.3953 11.7644 95.8811 11.281C95.3771 10.7976 95.125 10.2164 95.125 9.53759C95.125 8.85876 95.3771 8.27763 95.8811 7.79421C96.3953 7.3108 97.0073 7.06909 97.7169 7.06909C98.4267 7.06909 99.0335 7.3108 99.5375 7.79421C100.052 8.27763 100.309 8.85876 100.309 9.53759C100.309 10.2164 100.052 10.7976 99.5375 11.281C99.0335 11.7644 98.4267 12.0061 97.7169 12.0061Z" fill="#F7F7F8"/>
<path fill-rule="evenodd" clip-rule="evenodd" d="M65.6621 16.2244L65.6338 15.9847C65.4581 14.501 64.7514 13.3588 63.502 12.5388C62.2384 11.7096 60.6782 11.2873 58.8065 11.2873C57.4368 11.2873 56.2509 11.5089 55.2426 11.9438C54.2414 12.38 53.4697 12.9743 52.9159 13.7221C52.3751 14.466 52.1045 15.3094 52.1045 16.2614C52.1045 17.0592 52.2934 17.7295 52.6597 18.2848C53.0489 18.8484 53.5452 19.3209 54.1516 19.7026C54.7732 20.0835 55.4246 20.3991 56.1061 20.6498C56.7993 20.8944 57.4344 21.0925 58.0116 21.2443L58.0131 21.2448L61.2204 22.1083C61.2203 22.1083 61.2207 22.1083 61.2204 22.1083C62.0541 22.3273 62.9791 22.6287 63.9933 23.0116C65.0339 23.4006 66.0261 23.9309 66.9695 24.6017C67.9382 25.2726 68.7355 26.1346 69.3612 27.1843C69.9986 28.254 70.3097 29.5544 70.3097 31.0724C70.3097 32.8298 69.8484 34.4241 68.9241 35.8479C68.0083 37.2747 66.6707 38.4011 64.9253 39.2319C63.1826 40.0663 61.0779 40.4774 58.6213 40.4774C56.33 40.4774 54.3316 40.1077 52.6336 39.3589C50.9494 38.6115 49.613 37.5644 48.6354 36.2149C47.668 34.8647 47.1221 33.2976 46.9954 31.5237L46.9746 31.2328H51.465L51.4864 31.481C51.5849 32.6235 51.9663 33.5525 52.6204 34.2842C53.2968 35.0189 54.1518 35.5711 55.1926 35.9379C56.2518 36.2975 57.3941 36.4784 58.6213 36.4784C60.0519 36.4784 61.3273 36.2468 62.4518 35.7893C63.5778 35.3208 64.4584 34.6781 65.1043 33.866C65.7432 33.0525 66.0639 32.1045 66.0639 31.0107C66.0639 30.0148 65.7871 29.2296 65.2532 28.6301C64.6977 28.0065 63.9611 27.4931 63.0344 27.0945C62.0904 26.6885 61.0683 26.3324 59.968 26.0267L59.9661 26.0263L56.0782 24.9154C53.5817 24.1976 51.586 23.1677 50.1069 21.8153C48.6052 20.4423 47.8587 18.6441 47.8587 16.4465C47.8587 14.6254 48.3521 13.0255 49.3453 11.6585C50.3422 10.2904 51.677 9.23285 53.3413 8.48494C55.0158 7.72669 56.8802 7.35009 58.9299 7.35009C60.9989 7.35009 62.8487 7.7211 64.4735 8.47012C66.0942 9.20686 67.387 10.2217 68.3432 11.5175C69.3127 12.8176 69.8244 14.2957 69.8775 15.9441L69.8865 16.2244H65.6621ZM68.1251 11.6792C67.1994 10.4244 65.9446 9.437 64.3606 8.71703C62.7766 7.98676 60.9664 7.62162 58.9299 7.62162C56.914 7.62162 55.0883 7.9919 53.4529 8.73246C51.8278 9.46271 50.5318 10.4913 49.565 11.8181C48.6085 13.1346 48.1302 14.6774 48.1302 16.4465C48.1302 18.5756 48.8502 20.2984 50.2901 21.615C51.7301 22.9315 53.6843 23.9446 56.1528 24.6542L60.0407 25.7651C61.1516 26.0737 62.1853 26.4337 63.1418 26.8451C64.0983 27.2565 64.8696 27.7913 65.456 28.4496C66.0422 29.1079 66.3354 29.9615 66.3354 31.0107C66.3354 32.1626 65.9959 33.1706 65.3171 34.0345C64.6383 34.8883 63.7177 35.5568 62.5555 36.0402C61.3932 36.5133 60.0819 36.7499 58.6213 36.7499C57.3665 36.7499 56.194 36.5647 55.1037 36.1945C54.0238 35.814 53.1289 35.238 52.4192 34.4666C51.7198 33.6849 51.3187 32.6974 51.2158 31.5043H47.2662C47.2727 31.5955 47.2804 31.686 47.2891 31.776C47.4466 33.3917 47.9687 34.8183 48.8553 36.0557C49.8016 37.3619 51.0975 38.3802 52.7432 39.1105C54.3992 39.8407 56.3585 40.2058 58.6213 40.2058C61.0487 40.2058 63.111 39.7995 64.8081 38.9871C66.5154 38.1745 67.8114 37.079 68.6959 35.7008C69.5907 34.3226 70.0381 32.7798 70.0381 31.0724C70.0381 29.5913 69.7347 28.3416 69.128 27.3233C68.5211 26.305 67.7497 25.4719 66.8136 24.824C65.8879 24.1657 64.9159 23.6463 63.8978 23.2658C62.8897 22.8852 61.9743 22.587 61.1516 22.3709L57.9425 21.507C57.3562 21.3526 56.7134 21.152 56.014 20.9053C55.3146 20.6481 54.646 20.3241 54.0083 19.9333C53.3706 19.5321 52.8461 19.0333 52.4346 18.4367C52.0335 17.8299 51.833 17.1048 51.833 16.2614C51.833 15.2534 52.121 14.3534 52.6969 13.5614C53.2832 12.7695 54.0958 12.1472 55.1346 11.6946C56.1837 11.2421 57.4077 11.0158 58.8065 11.0158C60.7195 11.0158 62.3344 11.4478 63.6509 12.3118C64.9675 13.1758 65.7183 14.3894 65.9034 15.9528H69.6062C69.6032 15.8617 69.5989 15.7712 69.5931 15.6813C69.4968 14.1964 69.0076 12.8624 68.1251 11.6792ZM87.8914 15.6813H92.0755V39.9219H87.8914V36.2849C87.3193 37.3058 86.5146 38.1874 85.4828 38.9297L85.4815 38.9307C84.2528 39.8036 82.713 40.2306 80.8809 40.2306C79.3588 40.2306 77.9955 39.8972 76.7982 39.2236L76.7966 39.2228C75.593 38.5351 74.6526 37.5053 73.9731 36.1462C73.2908 34.7708 72.957 33.0541 72.957 31.0107V15.6813H77.1412V30.7638C77.1412 32.4386 77.608 33.7447 78.5171 34.712C79.4392 35.6824 80.6106 36.1698 82.0534 36.1698C82.9108 36.1698 83.7903 35.9509 84.6946 35.5037C85.5939 35.0639 86.3516 34.3877 86.965 33.4674L86.9662 33.4658C87.5761 32.5653 87.8914 31.4036 87.8914 29.9615V15.6813ZM78.3199 34.8985C77.353 33.87 76.8695 32.4917 76.8695 30.7638V15.9528H73.2286V31.0107C73.2286 33.0266 73.5576 34.698 74.2159 36.0248C74.8742 37.3414 75.7793 38.3288 76.9312 38.9871C78.0833 39.635 79.3997 39.9591 80.8809 39.9591C82.6706 39.9591 84.1517 39.5424 85.3241 38.7093C86.4795 37.8782 87.3352 36.8725 87.8914 35.692C87.8997 35.6744 87.9079 35.6568 87.916 35.6392H88.1629V39.6504H91.804V15.9528H88.1629V29.9615C88.1629 31.4426 87.839 32.6615 87.1909 33.618C86.5533 34.5746 85.7613 35.2843 84.815 35.747C83.879 36.21 82.9585 36.4414 82.0534 36.4414C80.5415 36.4414 79.297 35.9271 78.3199 34.8985ZM95.5946 39.9219V15.6813H99.7786V39.9219H95.5946ZM95.6955 11.4759L95.6936 11.4741C95.1379 10.9411 94.854 10.2899 94.854 9.53471C94.854 8.77953 95.1379 8.12834 95.6936 7.59537L95.6955 7.59347C96.2604 7.06245 96.9391 6.79468 97.7175 6.79468C98.4955 6.79468 99.1697 7.06231 99.7251 7.59454C100.291 8.12679 100.581 8.77815 100.581 9.53471C100.581 10.2913 100.291 10.9427 99.7251 11.4749C99.1697 12.0071 98.4955 12.2748 97.7175 12.2748C96.9391 12.2748 96.2604 12.007 95.6955 11.4759ZM99.538 11.2781C100.052 10.7947 100.309 10.2135 100.309 9.53471C100.309 8.85587 100.052 8.27475 99.538 7.79133C99.034 7.30792 98.4271 7.06621 97.7175 7.06621C97.0078 7.06621 96.3958 7.30792 95.8815 7.79133C95.3775 8.27475 95.1255 8.85587 95.1255 9.53471C95.1255 10.2135 95.3775 10.7947 95.8815 11.2781C96.3958 11.7615 97.0078 12.0032 97.7175 12.0032C98.4271 12.0032 99.034 11.7615 99.538 11.2781ZM95.8661 39.6504H99.5071V15.9528H95.8661V39.6504Z" fill="#F7F7F8"/>
</g>
<defs>
<clipPath id="clip0_1638_5618">
<rect width="37.2349" height="46.3368" fill="white" transform="translate(0.65625 0.466553)"/>
</clipPath>
<clipPath id="clip1_1638_5618">
<rect width="55.3177" height="34.9375" fill="white" transform="translate(46.0264 6.16626)"/>
</clipPath>
</defs>
</svg>
