<svg width="49" height="49" viewBox="0 0 49 49" fill="none" xmlns="http://www.w3.org/2000/svg">
<path d="M4.68984 24.4997L4.71568 33.977L12.7685 38.7157V44.2642L0.00287297 36.7772V21.7283L4.68984 24.4997ZM4.68984 15.0224V20.5451L0 17.7708V12.2481L4.68984 9.47388L9.40265 12.2481L4.68984 15.0224ZM16.1315 12.2481L20.8214 9.47388L25.5342 12.2481L20.8214 15.0224L16.1315 12.2481Z" fill="#F0B90B"/>
<path d="M8.07812 32.0127V26.4641L12.768 29.2384V34.7611L8.07812 32.0127ZM16.131 40.7031L20.8208 43.4773L25.5336 40.7031V46.2258L20.8208 49L16.131 46.2258V40.7031ZM32.2596 12.2481L36.9495 9.47388L41.6623 12.2481V17.7708L36.9495 20.5451V15.0224L32.2596 12.2481ZM36.9495 33.977L36.9753 24.4997L41.6652 21.7255V36.7743L28.8995 44.2614V38.7128L36.9495 33.977Z" fill="#F0B90B"/>
<path d="M33.5873 32.0133L28.8975 34.7617V29.239L33.5873 26.4647V32.0133Z" fill="#F0B90B"/>
<path d="M33.5865 16.9875L33.6123 22.536L25.5365 27.2747V36.775L20.8467 39.5234L16.1568 36.775V27.2747L8.081 22.536V16.9875L12.7909 14.2132L20.8179 18.9749L28.8938 14.2132L33.6066 16.9875H33.5865ZM8.07812 7.51305L20.8208 0.00012207L33.5865 7.51305L28.8966 10.2873L20.8208 5.52568L12.768 10.2873L8.07812 7.51305Z" fill="#F0B90B"/>
</svg>
