<svg width="32" height="33" viewBox="0 0 32 33" fill="none" xmlns="http://www.w3.org/2000/svg">
  <path
    d="M20.992 20.6631C19.481 20.5641 18.293 19.3141 18.293 17.7861C18.293 17.7351 18.294 17.6841 18.297 17.6331V17.6401C18.294 17.5921 18.292 17.5361 18.292 17.4791C18.292 15.9541 19.482 14.7081 20.984 14.6171H20.992C22.501 14.6991 23.693 15.9421 23.693 17.4641C23.693 17.5261 23.691 17.5871 23.687 17.6481V17.6401C23.69 17.6901 23.692 17.7491 23.692 17.8081C23.692 19.3311 22.501 20.5761 20.999 20.6621H20.991L20.992 20.6631ZM11.026 20.6631C9.51505 20.5641 8.32705 19.3141 8.32705 17.7861C8.32705 17.7351 8.32805 17.6841 8.33105 17.6331V17.6401C8.32805 17.5921 8.32605 17.5361 8.32605 17.4791C8.32605 15.9541 9.51605 14.7081 11.018 14.6171H11.026C12.535 14.6991 13.727 15.9421 13.727 17.4641C13.727 17.5261 13.725 17.5871 13.721 17.6481V17.6401C13.724 17.6881 13.726 17.7441 13.726 17.8011C13.726 19.3261 12.536 20.5721 11.034 20.6631H11.026ZM26.393 6.96506C24.63 6.13306 22.582 5.47506 20.438 5.09406L20.289 5.07206C20.284 5.07106 20.278 5.07006 20.272 5.07006C20.237 5.07006 20.207 5.08906 20.191 5.11706C19.957 5.52806 19.703 6.04106 19.474 6.56706L19.431 6.67806C18.401 6.51306 17.213 6.41906 16.003 6.41906C14.793 6.41906 13.605 6.51306 12.446 6.69406L12.575 6.67706C12.305 6.04706 12.047 5.53506 11.762 5.03906L11.803 5.11606C11.786 5.08706 11.755 5.06906 11.72 5.06906C11.715 5.06906 11.709 5.06906 11.704 5.07006C9.41105 5.47306 7.36305 6.13006 5.44905 7.02706L5.60005 6.96306C5.58305 6.97006 5.56905 6.98206 5.56005 6.99706C2.70605 11.0381 0.998047 16.0661 0.998047 21.4931C0.998047 22.4001 1.04605 23.2951 1.13905 24.1771L1.13005 24.0671C1.13305 24.0961 1.14805 24.1201 1.16905 24.1371C3.30905 25.7381 5.79705 27.0281 8.48205 27.8751L8.65805 27.9231C8.66605 27.9261 8.67605 27.9271 8.68605 27.9271C8.71805 27.9271 8.74605 27.9121 8.76305 27.8891C9.29805 27.1691 9.80705 26.3531 10.248 25.4971L10.295 25.3971C10.301 25.3851 10.305 25.3701 10.305 25.3541C10.305 25.3131 10.279 25.2791 10.243 25.2651H10.242C9.33005 24.9131 8.55905 24.5381 7.82505 24.1081L7.90205 24.1501C7.87305 24.1331 7.85405 24.1021 7.85405 24.0671C7.85405 24.0361 7.86905 24.0081 7.89205 23.9911C8.04905 23.8731 8.20705 23.7511 8.35705 23.6271C8.37305 23.6141 8.39405 23.6061 8.41605 23.6061C8.43005 23.6061 8.44305 23.6091 8.45405 23.6141H8.45305C10.661 24.6751 13.253 25.2951 15.989 25.2951C18.725 25.2951 21.318 24.6751 23.632 23.5681L23.525 23.6141C23.537 23.6081 23.55 23.6051 23.565 23.6051C23.587 23.6051 23.608 23.6131 23.624 23.6261C23.774 23.7501 23.931 23.8741 24.09 23.9911C24.113 24.0091 24.128 24.0371 24.128 24.0681C24.128 24.1031 24.109 24.1331 24.082 24.1501C23.421 24.5451 22.65 24.9191 21.847 25.2281L21.742 25.2641C21.706 25.2781 21.68 25.3131 21.68 25.3531C21.68 25.3691 21.684 25.3841 21.691 25.3971C22.192 26.3571 22.7 27.1711 23.262 27.9441L23.222 27.8871C23.239 27.9111 23.268 27.9271 23.299 27.9271C23.309 27.9271 23.319 27.9251 23.328 27.9231C26.193 27.0311 28.685 25.7411 30.893 24.0911L30.828 24.1381C30.85 24.1221 30.864 24.0971 30.867 24.0691C30.954 23.2851 31.003 22.3751 31.003 21.4541C31.003 16.0391 29.291 11.0241 26.38 6.92006L26.432 6.99806C26.424 6.98206 26.41 6.96906 26.394 6.96206L26.393 6.96506Z"
    fill="#0CCDCD" />
</svg>
  