<svg width="26" height="26" viewBox="0 0 26 26" fill="none" xmlns="http://www.w3.org/2000/svg">
    <path opacity="0.8" fill-rule="evenodd" clip-rule="evenodd" d="M6.71793 1.31209C6.84005 1.46012 6.91345 1.65008 6.91345 1.85732C6.91345 2.331 6.52981 2.71464 6.05613 2.71464H3.57545C3.14124 2.71464 2.75884 2.93359 2.53125 3.26727C2.39309 3.46957 2.31229 3.71443 2.31229 3.9778V6.20744C2.31229 6.47574 2.18894 6.71567 1.99589 6.87294C1.84848 6.99322 1.66036 7.06476 1.45498 7.06476C0.981291 7.06476 0.597656 6.68113 0.597656 6.20744V3.52632C0.597656 2.13117 1.72882 1 3.12397 1H6.05613C6.32257 1 6.56065 1.1215 6.71793 1.31209ZM6.75185 23.6406C6.85362 23.7819 6.91345 23.9552 6.91345 24.1427C6.91345 24.6164 6.52981 25 6.05613 25H3.12397C1.72882 25 0.597656 23.8688 0.597656 22.4737V19.2905C0.597656 18.8168 0.981291 18.4332 1.45498 18.4332C1.92866 18.4332 2.31229 18.8168 2.31229 19.2905V22.0222C2.31229 22.7198 2.87788 23.2854 3.57545 23.2854H6.05613C6.34231 23.2854 6.59581 23.4254 6.75185 23.6406ZM18.2819 24.1427C18.2819 24.6164 18.6655 25 19.1392 25H22.0713C23.4665 25 24.5977 23.8688 24.5977 22.4737V19.2905C24.5977 18.9809 24.4342 18.7101 24.1881 18.5596C24.058 18.4794 23.9044 18.4332 23.7403 18.4332C23.2667 18.4332 22.883 18.8168 22.883 19.2905V22.0222C22.883 22.7198 22.3174 23.2854 21.6199 23.2854H19.1392C18.8178 23.2854 18.5378 23.4618 18.391 23.7233C18.3213 23.8472 18.2819 23.9903 18.2819 24.1427ZM14.2025 1.85732C14.2025 2.331 14.5861 2.71464 15.0598 2.71464H21.1918L11.5763 12.3302C11.2062 12.7002 11.2062 13.2998 11.5763 13.6698C11.8236 13.9171 12.1739 13.9992 12.4891 13.9159C12.6451 13.8746 12.7932 13.7926 12.9159 13.6698L22.8583 3.72738C22.8744 3.80818 22.883 3.89206 22.883 3.9778V10.0407C22.883 10.5144 23.2667 10.898 23.7403 10.898C24.214 10.898 24.5977 10.5144 24.5977 10.0407V3.52632C24.5977 2.13117 23.4665 1 22.0713 1H15.0598C14.5861 1 14.2025 1.38363 14.2025 1.85732Z" fill="white" stroke="white"/>
</svg>