<svg width="28" height="28" viewBox="0 0 28 28" fill="none" xmlns="http://www.w3.org/2000/svg">
<g clip-path="url(#clip0_3101_579)">
<path d="M3.64844 22.4557C3.64844 23.077 4.15212 23.5807 4.77344 23.5807H22.7734C23.3948 23.5807 23.8984 23.077 23.8984 22.4557C23.8984 21.8343 23.3948 21.3307 22.7734 21.3307H4.77344C4.15212 21.3307 3.64844 21.8343 3.64844 22.4557ZM9.51028 13.8186C9.51028 14.4399 10.014 14.9436 10.6353 14.9436H22.7734C23.3948 14.9436 23.8984 14.4399 23.8984 13.8186C23.8984 13.1972 23.3948 12.6936 22.7734 12.6936H10.6353C10.014 12.6936 9.51028 13.1972 9.51028 13.8186ZM4.77344 3.98389C4.15212 3.98389 3.64844 4.48757 3.64844 5.10889C3.64844 5.73021 4.15212 6.23389 4.77344 6.23389H22.7734C23.3948 6.23389 23.8984 5.73021 23.8984 5.10889C23.8984 4.48757 23.3948 3.98389 22.7734 3.98389H4.77344Z" fill="currentColor"/>
</g>
<defs>
<clipPath id="clip0_3101_579">
<rect width="27" height="27" fill="white" transform="translate(0.273438 0.5)"/>
</clipPath>
</defs>
</svg>
