<svg width="50" height="50" viewBox="0 0 50 50" fill="none" xmlns="http://www.w3.org/2000/svg">
<g clip-path="url(#clip0_1165_753)">
<g filter="url(#filter0_bi_1165_753)">
<path d="M26.0749 10.2587C25.9664 10.0612 25.808 9.89559 25.6156 9.77845L15.2044 3.41592C15.0002 3.29128 14.7656 3.22534 14.5263 3.22534C14.2871 3.22534 14.0525 3.29128 13.8483 3.41592L3.43711 9.77845C3.24462 9.89559 3.08622 10.0612 2.97772 10.2587L14.5263 17.3174L26.0749 10.2587Z" fill="url(#paint0_linear_1165_753)"/>
<path d="M2.97772 10.2587C2.87038 10.4517 2.8127 10.67 2.8125 10.8909V22.4447C2.81262 22.6676 2.87001 22.8868 2.97917 23.0812C3.08832 23.2756 3.24558 23.4387 3.43587 23.5548L13.8471 29.9173C14.0512 30.0422 14.2858 30.1084 14.5251 30.1086L14.5263 17.3174L2.97772 10.2587Z" fill="url(#paint1_linear_1165_753)"/>
<path d="M26.0749 10.2587C26.1823 10.4517 26.2375 10.67 26.2377 10.8909V22.4447C26.2376 22.6676 26.1802 22.8868 26.071 23.0812C25.9619 23.2756 25.8046 23.4387 25.6143 23.5548L15.2031 29.9173C14.999 30.0422 14.7644 30.1084 14.5251 30.1086L14.5263 17.3174L26.0749 10.2587Z" fill="url(#paint2_linear_1165_753)"/>
</g>
<g filter="url(#filter1_bi_1165_753)">
<path d="M26.0749 10.2587C25.9664 10.0612 25.808 9.89559 25.6156 9.77845L15.2044 3.41592C15.0002 3.29128 14.7656 3.22534 14.5263 3.22534C14.2871 3.22534 14.0525 3.29128 13.8483 3.41592L3.43711 9.77845C3.24462 9.89559 3.08622 10.0612 2.97772 10.2587L14.5263 17.3174L26.0749 10.2587Z" fill="url(#paint3_linear_1165_753)"/>
<path d="M2.97772 10.2587C2.87038 10.4517 2.8127 10.67 2.8125 10.8909V22.4447C2.81262 22.6676 2.87001 22.8868 2.97917 23.0812C3.08832 23.2756 3.24558 23.4387 3.43587 23.5548L13.8471 29.9173C14.0512 30.0422 14.2858 30.1084 14.5251 30.1086L14.5263 17.3174L2.97772 10.2587Z" fill="url(#paint4_linear_1165_753)"/>
<path d="M26.0749 10.2587C26.1823 10.4517 26.2375 10.67 26.2377 10.8909V22.4447C26.2376 22.6676 26.1802 22.8868 26.071 23.0812C25.9619 23.2756 25.8046 23.4387 25.6143 23.5548L15.2031 29.9173C14.999 30.0422 14.7644 30.1084 14.5251 30.1086L14.5263 17.3174L26.0749 10.2587Z" fill="url(#paint5_linear_1165_753)"/>
</g>
<g filter="url(#filter2_bi_1165_753)">
<path d="M28.845 8.72084C28.7105 8.47597 28.5141 8.27066 28.2754 8.12541L15.3662 0.236307C15.113 0.0817636 14.8222 0 14.5255 0C14.2289 0 13.938 0.0817636 13.6848 0.236307L0.775671 8.12541C0.536996 8.27066 0.34059 8.47597 0.206055 8.72084L14.5255 17.4732L28.845 8.72084Z" fill="url(#paint6_linear_1165_753)"/>
<path d="M14.5255 17.2974L0.412521 8.67124C0.528057 8.50282 0.678258 8.36028 0.853651 8.25354L0.853889 8.2534L13.763 0.364341C13.763 0.364327 13.763 0.364313 13.763 0.364299C13.9927 0.224148 14.2565 0.15 14.5255 0.15C14.7946 0.15 15.0584 0.224163 15.2881 0.364341L28.1972 8.2534L28.1974 8.25354C28.3728 8.36028 28.523 8.50282 28.6385 8.67124L14.5255 17.2974Z" stroke="url(#paint7_linear_1165_753)" stroke-opacity="0.1" stroke-width="0.3"/>
</g>
<g filter="url(#filter3_bi_1165_753)">
<path d="M0.203319 8.72217C0.0702236 8.96156 0.000253821 9.23088 0 9.50478L0 23.8307C0.000153904 24.1071 0.0713143 24.3789 0.206659 24.6199C0.342003 24.8609 0.536993 25.0631 0.772935 25.2071L13.6821 33.0962C13.9352 33.2511 14.2261 33.3332 14.5228 33.3335V17.4746L0.203319 8.72217Z" fill="url(#paint8_linear_1165_753)"/>
<path d="M0.15 23.8307H0H0.15ZM0.15 23.8307C0.15014 24.0814 0.214685 24.3278 0.337448 24.5465C0.460211 24.7651 0.637076 24.9485 0.851085 25.0791L0.851154 25.0792L13.7603 32.9683L13.7604 32.9683C13.947 33.0825 14.1564 33.1531 14.3728 33.1756V17.5587L0.265642 8.93606C0.189715 9.11555 0.15019 9.30892 0.15 9.50486V23.8307Z" stroke="url(#paint9_linear_1165_753)" stroke-opacity="0.1" stroke-width="0.3"/>
</g>
<g filter="url(#filter4_bi_1165_753)">
<path d="M28.841 8.72217C28.9741 8.96156 29.044 9.23088 29.0443 9.50478V23.8307C29.0441 24.1071 28.973 24.3789 28.8376 24.6199C28.7023 24.8609 28.5073 25.0631 28.2713 25.2071L15.3622 33.0962C15.1091 33.2511 14.8182 33.3332 14.5215 33.3335V17.4746L28.841 8.72217Z" fill="url(#paint10_linear_1165_753)"/>
<path d="M28.1932 25.0791L28.1931 25.0792L15.284 32.9683L15.2839 32.9683C15.0972 33.0825 14.8879 33.1531 14.6715 33.1756V17.5587L28.7786 8.93606C28.8546 9.11557 28.8941 9.30896 28.8943 9.50492V23.8306C28.8941 24.0814 28.8296 24.3278 28.7068 24.5465C28.5841 24.7651 28.4072 24.9485 28.1932 25.0791Z" stroke="url(#paint11_linear_1165_753)" stroke-opacity="0.1" stroke-width="0.3"/>
</g>
<path d="M40.2165 8.69557H34.1447L38.811 4.02927L37.2741 2.49231L30.7523 9.01405C30.3273 9.43905 30.3273 10.126 30.7523 10.551L37.2741 17.0727L38.811 15.5358L34.1447 10.8695H40.2165C43.2132 10.8695 45.6513 13.3075 45.6513 16.3043H47.8252C47.8252 12.1086 44.411 8.69557 40.2165 8.69557Z" fill="url(#paint12_linear_1165_753)"/>
<path d="M12.7259 32.9275L11.1889 34.4644L15.8552 39.1308H9.7835C6.78676 39.1308 4.34872 36.6927 4.34872 33.696H2.1748C2.1748 37.8916 5.58894 41.3047 9.7835 41.3047H15.8552L11.1889 45.971L12.7259 47.5079L19.2476 40.9862C19.6726 40.5612 19.6726 39.8742 19.2476 39.4492L12.7259 32.9275Z" fill="url(#paint13_linear_1165_753)"/>
<path d="M35.4167 45.8333C41.1696 45.8333 45.8333 41.1696 45.8333 35.4167C45.8333 29.6637 41.1696 25 35.4167 25C29.6637 25 25 29.6637 25 35.4167C25 41.1696 29.6637 45.8333 35.4167 45.8333Z" fill="url(#paint14_linear_1165_753)"/>
<g filter="url(#filter5_bi_1165_753)">
<path d="M35.4163 50C43.4705 50 49.9997 43.4709 49.9997 35.4167C49.9997 27.3626 43.4705 20.8334 35.4163 20.8334C27.3622 20.8334 20.833 27.3626 20.833 35.4167C20.833 43.4709 27.3622 50 35.4163 50Z" fill="url(#paint15_linear_1165_753)"/>
<path d="M49.8497 35.4167C49.8497 43.388 43.3877 49.85 35.4163 49.85C27.445 49.85 20.983 43.388 20.983 35.4167C20.983 27.4454 27.445 20.9834 35.4163 20.9834C43.3877 20.9834 49.8497 27.4454 49.8497 35.4167Z" stroke="url(#paint16_linear_1165_753)" stroke-opacity="0.1" stroke-width="0.3"/>
</g>
</g>
<defs>
<filter id="filter0_bi_1165_753" x="0.393011" y="0.805852" width="28.2638" height="31.7223" filterUnits="userSpaceOnUse" color-interpolation-filters="sRGB">
<feFlood flood-opacity="0" result="BackgroundImageFix"/>
<feGaussianBlur in="BackgroundImageFix" stdDeviation="1.20974"/>
<feComposite in2="SourceAlpha" operator="in" result="effect1_backgroundBlur_1165_753"/>
<feBlend mode="normal" in="SourceGraphic" in2="effect1_backgroundBlur_1165_753" result="shape"/>
<feColorMatrix in="SourceAlpha" type="matrix" values="0 0 0 0 0 0 0 0 0 0 0 0 0 0 0 0 0 0 127 0" result="hardAlpha"/>
<feOffset dy="0.403248"/>
<feGaussianBlur stdDeviation="0.806497"/>
<feComposite in2="hardAlpha" operator="arithmetic" k2="-1" k3="1"/>
<feColorMatrix type="matrix" values="0 0 0 0 1 0 0 0 0 1 0 0 0 0 1 0 0 0 0.4 0"/>
<feBlend mode="normal" in2="shape" result="effect2_innerShadow_1165_753"/>
</filter>
<filter id="filter1_bi_1165_753" x="0.393011" y="0.805852" width="28.2638" height="31.7223" filterUnits="userSpaceOnUse" color-interpolation-filters="sRGB">
<feFlood flood-opacity="0" result="BackgroundImageFix"/>
<feGaussianBlur in="BackgroundImageFix" stdDeviation="1.20974"/>
<feComposite in2="SourceAlpha" operator="in" result="effect1_backgroundBlur_1165_753"/>
<feBlend mode="normal" in="SourceGraphic" in2="effect1_backgroundBlur_1165_753" result="shape"/>
<feColorMatrix in="SourceAlpha" type="matrix" values="0 0 0 0 0 0 0 0 0 0 0 0 0 0 0 0 0 0 127 0" result="hardAlpha"/>
<feOffset dy="0.403248"/>
<feGaussianBlur stdDeviation="0.806497"/>
<feComposite in2="hardAlpha" operator="arithmetic" k2="-1" k3="1"/>
<feColorMatrix type="matrix" values="0 0 0 0 1 0 0 0 0 1 0 0 0 0 1 0 0 0 0.4 0"/>
<feBlend mode="normal" in2="shape" result="effect2_innerShadow_1165_753"/>
</filter>
<filter id="filter2_bi_1165_753" x="-5.79395" y="-6" width="40.6387" height="29.4733" filterUnits="userSpaceOnUse" color-interpolation-filters="sRGB">
<feFlood flood-opacity="0" result="BackgroundImageFix"/>
<feGaussianBlur in="BackgroundImageFix" stdDeviation="3"/>
<feComposite in2="SourceAlpha" operator="in" result="effect1_backgroundBlur_1165_753"/>
<feBlend mode="normal" in="SourceGraphic" in2="effect1_backgroundBlur_1165_753" result="shape"/>
<feColorMatrix in="SourceAlpha" type="matrix" values="0 0 0 0 0 0 0 0 0 0 0 0 0 0 0 0 0 0 127 0" result="hardAlpha"/>
<feOffset dy="2"/>
<feGaussianBlur stdDeviation="1.5"/>
<feComposite in2="hardAlpha" operator="arithmetic" k2="-1" k3="1"/>
<feColorMatrix type="matrix" values="0 0 0 0 1 0 0 0 0 1 0 0 0 0 1 0 0 0 0.4 0"/>
<feBlend mode="normal" in2="shape" result="effect2_innerShadow_1165_753"/>
</filter>
<filter id="filter3_bi_1165_753" x="-6" y="2.72217" width="26.5225" height="36.6113" filterUnits="userSpaceOnUse" color-interpolation-filters="sRGB">
<feFlood flood-opacity="0" result="BackgroundImageFix"/>
<feGaussianBlur in="BackgroundImageFix" stdDeviation="3"/>
<feComposite in2="SourceAlpha" operator="in" result="effect1_backgroundBlur_1165_753"/>
<feBlend mode="normal" in="SourceGraphic" in2="effect1_backgroundBlur_1165_753" result="shape"/>
<feColorMatrix in="SourceAlpha" type="matrix" values="0 0 0 0 0 0 0 0 0 0 0 0 0 0 0 0 0 0 127 0" result="hardAlpha"/>
<feOffset dy="2"/>
<feGaussianBlur stdDeviation="1.5"/>
<feComposite in2="hardAlpha" operator="arithmetic" k2="-1" k3="1"/>
<feColorMatrix type="matrix" values="0 0 0 0 1 0 0 0 0 1 0 0 0 0 1 0 0 0 0.4 0"/>
<feBlend mode="normal" in2="shape" result="effect2_innerShadow_1165_753"/>
</filter>
<filter id="filter4_bi_1165_753" x="8.52148" y="2.72217" width="26.5225" height="36.6113" filterUnits="userSpaceOnUse" color-interpolation-filters="sRGB">
<feFlood flood-opacity="0" result="BackgroundImageFix"/>
<feGaussianBlur in="BackgroundImageFix" stdDeviation="3"/>
<feComposite in2="SourceAlpha" operator="in" result="effect1_backgroundBlur_1165_753"/>
<feBlend mode="normal" in="SourceGraphic" in2="effect1_backgroundBlur_1165_753" result="shape"/>
<feColorMatrix in="SourceAlpha" type="matrix" values="0 0 0 0 0 0 0 0 0 0 0 0 0 0 0 0 0 0 127 0" result="hardAlpha"/>
<feOffset dy="2"/>
<feGaussianBlur stdDeviation="1.5"/>
<feComposite in2="hardAlpha" operator="arithmetic" k2="-1" k3="1"/>
<feColorMatrix type="matrix" values="0 0 0 0 1 0 0 0 0 1 0 0 0 0 1 0 0 0 0.4 0"/>
<feBlend mode="normal" in2="shape" result="effect2_innerShadow_1165_753"/>
</filter>
<filter id="filter5_bi_1165_753" x="14.833" y="14.8334" width="41.167" height="41.1666" filterUnits="userSpaceOnUse" color-interpolation-filters="sRGB">
<feFlood flood-opacity="0" result="BackgroundImageFix"/>
<feGaussianBlur in="BackgroundImageFix" stdDeviation="3"/>
<feComposite in2="SourceAlpha" operator="in" result="effect1_backgroundBlur_1165_753"/>
<feBlend mode="normal" in="SourceGraphic" in2="effect1_backgroundBlur_1165_753" result="shape"/>
<feColorMatrix in="SourceAlpha" type="matrix" values="0 0 0 0 0 0 0 0 0 0 0 0 0 0 0 0 0 0 127 0" result="hardAlpha"/>
<feOffset dy="2"/>
<feGaussianBlur stdDeviation="1.5"/>
<feComposite in2="hardAlpha" operator="arithmetic" k2="-1" k3="1"/>
<feColorMatrix type="matrix" values="0 0 0 0 1 0 0 0 0 1 0 0 0 0 1 0 0 0 0.4 0"/>
<feBlend mode="normal" in2="shape" result="effect2_innerShadow_1165_753"/>
</filter>
<linearGradient id="paint0_linear_1165_753" x1="28.3832" y1="3.22534" x2="-0.111169" y2="6.79938" gradientUnits="userSpaceOnUse">
<stop stop-color="#19FB9B"/>
<stop offset="1" stop-color="#8C01FA"/>
</linearGradient>
<linearGradient id="paint1_linear_1165_753" x1="28.3832" y1="3.22534" x2="-0.111169" y2="6.79938" gradientUnits="userSpaceOnUse">
<stop stop-color="#19FB9B"/>
<stop offset="1" stop-color="#8C01FA"/>
</linearGradient>
<linearGradient id="paint2_linear_1165_753" x1="28.3832" y1="3.22534" x2="-0.111169" y2="6.79938" gradientUnits="userSpaceOnUse">
<stop stop-color="#19FB9B"/>
<stop offset="1" stop-color="#8C01FA"/>
</linearGradient>
<linearGradient id="paint3_linear_1165_753" x1="28.3832" y1="3.22534" x2="-0.111169" y2="6.79938" gradientUnits="userSpaceOnUse">
<stop stop-color="#19FB9B"/>
<stop offset="1" stop-color="#8C01FA"/>
</linearGradient>
<linearGradient id="paint4_linear_1165_753" x1="28.3832" y1="3.22534" x2="-0.111169" y2="6.79938" gradientUnits="userSpaceOnUse">
<stop stop-color="#19FB9B"/>
<stop offset="1" stop-color="#8C01FA"/>
</linearGradient>
<linearGradient id="paint5_linear_1165_753" x1="28.3832" y1="3.22534" x2="-0.111169" y2="6.79938" gradientUnits="userSpaceOnUse">
<stop stop-color="#19FB9B"/>
<stop offset="1" stop-color="#8C01FA"/>
</linearGradient>
<linearGradient id="paint6_linear_1165_753" x1="31.4681" y1="4.32631e-07" x2="-2.05066" y2="7.90807" gradientUnits="userSpaceOnUse">
<stop stop-color="#19FB9B"/>
<stop offset="1" stop-color="#8C01FA"/>
</linearGradient>
<linearGradient id="paint7_linear_1165_753" x1="1.10102" y1="0.794239" x2="28.845" y2="0.794239" gradientUnits="userSpaceOnUse">
<stop stop-color="#C8A6FF"/>
<stop offset="1" stop-color="#69CFB5"/>
</linearGradient>
<linearGradient id="paint8_linear_1165_753" x1="15.853" y1="8.72217" x2="-1.96196" y2="10.2354" gradientUnits="userSpaceOnUse">
<stop stop-color="#19FB9B"/>
<stop offset="1" stop-color="#8C01FA"/>
</linearGradient>
<linearGradient id="paint9_linear_1165_753" x1="0.453837" y1="9.84086" x2="14.5228" y2="9.84086" gradientUnits="userSpaceOnUse">
<stop stop-color="#C8A6FF"/>
<stop offset="1" stop-color="#69CFB5"/>
</linearGradient>
<linearGradient id="paint10_linear_1165_753" x1="30.3744" y1="8.72217" x2="12.5595" y2="10.2354" gradientUnits="userSpaceOnUse">
<stop stop-color="#19FB9B"/>
<stop offset="1" stop-color="#8C01FA"/>
</linearGradient>
<linearGradient id="paint11_linear_1165_753" x1="14.9753" y1="9.84086" x2="29.0443" y2="9.84086" gradientUnits="userSpaceOnUse">
<stop stop-color="#C8A6FF"/>
<stop offset="1" stop-color="#69CFB5"/>
</linearGradient>
<linearGradient id="paint12_linear_1165_753" x1="49.4181" y1="2.49231" x2="28.5455" y2="6.07612" gradientUnits="userSpaceOnUse">
<stop stop-color="#19FB9B"/>
<stop offset="1" stop-color="#8C01FA"/>
</linearGradient>
<linearGradient id="paint13_linear_1165_753" x1="21.1593" y1="32.9275" x2="0.286695" y2="36.5113" gradientUnits="userSpaceOnUse">
<stop stop-color="#19FB9B"/>
<stop offset="1" stop-color="#8C01FA"/>
</linearGradient>
<linearGradient id="paint14_linear_1165_753" x1="47.7415" y1="25" x2="22.5237" y2="28.63" gradientUnits="userSpaceOnUse">
<stop stop-color="#19FB9B"/>
<stop offset="1" stop-color="#8C01FA"/>
</linearGradient>
<linearGradient id="paint15_linear_1165_753" x1="52.6711" y1="20.8334" x2="17.3661" y2="25.9154" gradientUnits="userSpaceOnUse">
<stop stop-color="#19FB9B"/>
<stop offset="1" stop-color="#8C01FA"/>
</linearGradient>
<linearGradient id="paint16_linear_1165_753" x1="21.7445" y1="22.1591" x2="49.9997" y2="22.1591" gradientUnits="userSpaceOnUse">
<stop stop-color="#C8A6FF"/>
<stop offset="1" stop-color="#69CFB5"/>
</linearGradient>
<clipPath id="clip0_1165_753">
<rect width="50" height="50" fill="white"/>
</clipPath>
</defs>
</svg>
