<svg width="51" height="40" viewBox="0 0 51 40" fill="none" xmlns="http://www.w3.org/2000/svg">
    <path d="M5.22262 40C4.49303 40 3.82799 39.6284 3.44657 39.0064C3.06907 38.3902 3.03582 37.6391 3.35661 36.9936L24.0529 1.13643C24.4148 0.424449 25.1092 0 25.9092 0C26.7092 0 27.4016 0.424449 27.7654 1.13643L48.4617 36.9936C48.7806 37.6391 48.7473 38.3902 48.3717 39.0044C47.9903 39.6264 47.3272 39.998 46.5977 39.998L45.0916 39.9922C44.3463 39.9883 43.4779 39.245 42.7053 37.9501L25.9072 8.4088L9.20697 37.7897C8.02555 40 7.35855 40 6.71112 40H5.22066H5.22262Z" fill="url(#paint0_linear_3126_3211)"/>
    <path d="M18.6738 6.54303L16.4088 7.92591C14.3921 9.15623 12.6689 10.4061 11.1393 11.7381C6.57014 15.5758 2.64837 21.7763 4.17796 26.9773L4.21512 27.1103L1.54128 31.478L1.29092 30.991C0.846914 30.1205 0.510481 29.1993 0.297278 28.2506C-1.73108 18.768 6.95547 10.4159 16.1525 7.37629L18.6738 6.54108V6.54303Z" fill="url(#paint1_linear_3126_3211)"/>
    <path d="M50.287 17.5356C50.0914 23.1023 46.7486 28.5654 40.8826 32.9272C40.0298 33.561 39.1398 34.1576 38.2323 34.7053C36.4347 35.7771 34.5413 36.6964 32.6107 37.4534C28.3721 39.1101 23.9985 39.9453 19.7403 39.9453C17.9252 39.9453 16.1335 39.7928 14.375 39.4876L13.6807 39.3722L16.3721 34.8167L16.5677 34.8343C21.1428 35.2862 26.3926 34.494 31.3452 32.6162C32.9354 32.0138 34.4396 31.3194 35.8166 30.5507C37.1017 29.8309 38.3085 29.0466 39.4156 28.2055C42.4063 25.9581 46.109 22.2358 46.7799 17.3087C47.5604 10.7052 41.5907 6.61918 35.7501 5.00548L33.045 4.25635L35.8459 4.40892C39.6719 4.61039 43.2279 5.9072 45.8528 8.0451C48.8122 10.4568 50.3418 13.7409 50.287 17.5356Z" fill="url(#paint2_linear_3126_3211)"/>
    <defs>
        <linearGradient id="paint0_linear_3126_3211" x1="50.784" y1="-8.03031" x2="-6.72386" y2="-2.42592" gradientUnits="userSpaceOnUse">
            <stop stop-color="#00FFBD"/>
            <stop offset="1" stop-color="#025B8C"/>
        </linearGradient>
        <linearGradient id="paint1_linear_3126_3211" x1="19.5369" y1="1.5348" x2="-4.17018" y2="3.05437" gradientUnits="userSpaceOnUse">
            <stop stop-color="#00FFBD"/>
            <stop offset="1" stop-color="#025B8C"/>
        </linearGradient>
        <linearGradient id="paint2_linear_3126_3211" x1="51.9804" y1="-2.90849" x2="5.67157" y2="1.1574" gradientUnits="userSpaceOnUse">
            <stop stop-color="#00FFBD"/>
            <stop offset="1" stop-color="#025B8C"/>
        </linearGradient>
    </defs>
</svg>
