<svg width="280" height="31" viewBox="0 0 280 31" fill="none" xmlns="http://www.w3.org/2000/svg">
    <path d="M68.0376 30.8966C57.5418 30.8966 48.9449 24.615 48.4654 16.5968C48.217 12.4397 50.0759 8.497 53.7018 5.49581C57.3297 2.4931 62.2185 0.839355 67.4721 0.839355H84.5149C85.6096 0.839355 86.4998 1.54249 86.4998 2.40709V3.34563C86.4998 4.21023 85.6096 4.91337 84.5149 4.91337H67.4721C63.6532 4.91337 59.9623 6.17933 57.345 8.38685C54.6933 10.6245 53.3752 13.5443 53.6331 16.6103C54.1145 22.3366 60.3902 26.8225 67.923 26.8225H84.513C85.6077 26.8225 86.4979 27.5257 86.4979 28.3903V29.3273C86.4979 30.1919 85.6077 30.8951 84.513 30.8951H68.0376V30.8966Z" fill="white"/>
    <path d="M163.407 30.888C161.598 30.888 159.856 30.5681 158.234 29.9358C155.892 29.0365 153.995 27.5322 152.888 25.7004C152.065 24.4178 151.652 23.0462 151.652 21.6052V2.41961C151.652 1.55502 152.543 0.851868 153.637 0.851868H154.824C155.918 0.851868 156.809 1.55502 156.809 2.41961V22.2209L156.816 22.2722C157.208 24.6351 159.571 26.5016 162.563 26.8109L162.626 26.817H180.706C181.801 26.817 182.691 27.5201 182.691 28.3847V29.3217C182.691 30.1863 181.801 30.8895 180.706 30.8895H163.403L163.407 30.888Z" fill="white"/>
    <path d="M3.58776 30.888C2.49309 30.888 1.60284 30.1848 1.60284 29.3202V28.3832C1.60284 27.5186 2.49309 26.8154 3.58776 26.8154H30.1292C32.0988 26.8154 33.9443 26.1229 35.1937 24.9127C36.4316 23.7147 36.913 22.1499 36.5176 20.6184C35.9062 18.2585 33.1553 16.5459 29.9763 16.5459H9.80425C7.2462 16.5459 4.83908 15.7779 3.02992 14.3837C2.51411 13.9944 2.10146 13.6096 1.76522 13.2007C0.603691 11.8879 0 10.3685 0 8.78263V8.59552C0 4.32535 4.39778 0.851868 9.80425 0.851868H37.2531C38.3478 0.851868 39.238 1.55502 39.238 2.41961V3.37626C39.238 4.24085 38.3478 4.94399 37.2531 4.94399H9.80616C7.24429 4.94399 5.15812 6.5902 5.15812 8.61514V8.78414C5.15812 10.8076 7.24238 12.4538 9.80616 12.4538H30.1311C33.4074 12.4538 36.5443 13.5507 38.7413 15.4655L38.7795 15.4987L38.8215 15.5289C38.9343 15.6059 39.0374 15.7145 39.1559 15.8397C41.2325 17.8541 42.1323 20.3544 41.712 22.9059C40.9631 27.4582 35.8165 30.891 29.7432 30.891H3.58776V30.888Z" fill="white"/>
    <path d="M191.454 30.9287C190.758 30.9287 190.124 30.6481 189.761 30.1803C189.402 29.7171 189.369 29.1512 189.675 28.6654L209.406 1.66519C209.752 1.12802 210.413 0.808136 211.175 0.808136C211.937 0.808136 212.598 1.12802 212.944 1.66519L232.677 28.6654C232.98 29.1512 232.95 29.7171 232.591 30.1803C232.228 30.6481 231.595 30.9287 230.9 30.9287L229.465 30.9242C228.755 30.9212 227.925 30.3614 227.19 29.3866L211.177 7.14098L195.255 29.2644C194.13 30.9287 193.492 30.9287 192.877 30.9287H191.456H191.454Z" fill="white"/>
    <path d="M274.763 30.8969C274.014 30.8969 273.336 30.5695 272.996 30.0429L272.958 29.9855L262.997 19.4142C261.535 17.5341 258.895 16.3677 256.093 16.3677H240.123C239.027 16.3677 238.135 15.6631 238.135 14.797V13.866C238.135 12.9999 239.027 12.2952 240.123 12.2952H270.197C270.914 12.2952 271.546 12.1821 272.134 11.9512C273.766 11.3763 274.843 10.0591 274.843 8.60599C274.843 7.65236 274.36 6.72289 273.481 5.98805L273.443 5.95787C272.536 5.27736 271.412 4.91824 270.195 4.91824H240.122C239.025 4.91824 238.133 4.21359 238.133 3.34749V2.41649C238.133 1.55038 239.025 0.845734 240.122 0.845734H270.195C272.813 0.845734 275.275 1.65148 277.128 3.11511C278.979 4.59534 280 6.54785 280 8.60901C280 11.7566 277.709 14.5888 274.299 15.6586C272.259 16.2983 269.223 16.33 268.634 16.33H268.445L266.453 16.2968L277.908 28.6743C278.188 29.1526 278.15 29.7019 277.799 30.1545C277.434 30.6223 276.802 30.9029 276.106 30.9029H274.759L274.763 30.8969Z" fill="white"/>
    <path d="M99.7942 30.9284C99.0816 30.9284 98.432 30.6417 98.0595 30.1618C97.6908 29.6865 97.6583 29.1071 97.9716 28.6092L118.186 0.94811C118.539 0.398872 119.217 0.0714417 119.999 0.0714417C120.78 0.0714417 121.456 0.398872 121.812 0.94811L142.026 28.6092C142.337 29.1071 142.305 29.6866 141.938 30.1603C141.565 30.6402 140.918 30.9269 140.205 30.9269L138.734 30.9223C138.006 30.9193 137.158 30.3459 136.403 29.347L119.997 6.55819L103.686 29.2233C102.532 30.9284 101.88 30.9284 101.248 30.9284H99.7922H99.7942Z" fill="white"/>
    <path d="M112.887 5.11925L110.675 6.18604C108.705 7.13513 107.022 8.09932 105.528 9.12687C101.065 12.0873 97.2351 16.8705 98.729 20.8827L98.7653 20.9853L96.1538 24.3547L95.9093 23.9789C95.4756 23.3075 95.147 22.5968 94.9388 21.865C92.9577 14.5498 101.442 8.10686 110.425 5.76204L112.887 5.11774V5.11925Z" fill="white"/>
    <path d="M143.816 13.6002C143.625 17.8945 140.36 22.1089 134.631 25.4737C133.798 25.9626 132.928 26.4228 132.042 26.8453C130.286 27.6722 128.437 28.3814 126.552 28.9653C122.412 30.2433 118.14 30.8876 113.981 30.8876C112.208 30.8876 110.458 30.7699 108.741 30.5346L108.062 30.4455L110.691 26.9313L110.882 26.9449C115.351 27.2935 120.478 26.6823 125.315 25.2338C126.869 24.7691 128.338 24.2334 129.683 23.6404C130.938 23.0851 132.117 22.4801 133.198 21.8312C136.119 20.0975 139.735 17.2261 140.391 13.4252C141.153 8.33115 135.322 5.17907 129.618 3.93423L126.976 3.35632L129.711 3.47401C133.448 3.62943 136.921 4.62983 139.485 6.27905C142.375 8.13952 143.869 10.673 143.816 13.6002Z" fill="white"/>
</svg>
