<svg width="280" height="32" viewBox="0 0 280 32" fill="none" xmlns="http://www.w3.org/2000/svg">
<path d="M68.0376 31.3966C57.5418 31.3966 48.9449 25.115 48.4654 17.0968C48.217 12.9397 50.0759 8.997 53.7018 5.99581C57.3297 2.9931 62.2185 1.33936 67.4721 1.33936H84.5149C85.6096 1.33936 86.4998 2.04249 86.4998 2.90709V3.84563C86.4998 4.71023 85.6096 5.41337 84.5149 5.41337H67.4721C63.6532 5.41337 59.9623 6.67933 57.345 8.88685C54.6933 11.1245 53.3752 14.0443 53.6331 17.1103C54.1145 22.8366 60.3902 27.3225 67.923 27.3225H84.513C85.6077 27.3225 86.4979 28.0257 86.4979 28.8903V29.8273C86.4979 30.6919 85.6077 31.3951 84.513 31.3951H68.0376V31.3966Z" fill="url(#paint0_linear_3101_564)"/>
<path d="M163.408 31.3876C161.599 31.3876 159.857 31.0678 158.235 30.4355C155.893 29.5362 153.995 28.0319 152.889 26.2001C152.066 24.9175 151.653 23.5459 151.653 22.1049V2.91931C151.653 2.05471 152.544 1.35156 153.638 1.35156H154.825C155.919 1.35156 156.81 2.05471 156.81 2.91931V22.7205L156.817 22.7719C157.209 25.1348 159.572 27.0013 162.564 27.3106L162.627 27.3166H180.707C181.802 27.3166 182.692 28.0198 182.692 28.8844V29.8214C182.692 30.686 181.802 31.3892 180.707 31.3892H163.404L163.408 31.3876Z" fill="url(#paint1_linear_3101_564)"/>
<path d="M3.58776 31.3876C2.49309 31.3876 1.60284 30.6845 1.60284 29.8199V28.8829C1.60284 28.0183 2.49309 27.3151 3.58776 27.3151H30.1292C32.0988 27.3151 33.9443 26.6226 35.1937 25.4124C36.4316 24.2144 36.913 22.6496 36.5176 21.1181C35.9062 18.7582 33.1553 17.0456 29.9763 17.0456H9.80425C7.2462 17.0456 4.83908 16.2776 3.02992 14.8834C2.51411 14.4941 2.10146 14.1093 1.76522 13.7004C0.603691 12.3876 0 10.8682 0 9.28232V9.09522C0 4.82504 4.39778 1.35156 9.80425 1.35156H37.2531C38.3478 1.35156 39.238 2.05471 39.238 2.91931V3.87595C39.238 4.74055 38.3478 5.44369 37.2531 5.44369H9.80616C7.24429 5.44369 5.15812 7.0899 5.15812 9.11483V9.28383C5.15812 11.3073 7.24238 12.9535 9.80616 12.9535H30.1311C33.4074 12.9535 36.5443 14.0504 38.7413 15.9652L38.7795 15.9984L38.8215 16.0286C38.9343 16.1056 39.0374 16.2142 39.1559 16.3394C41.2325 18.3538 42.1323 20.854 41.712 23.4056C40.9631 27.9579 35.8165 31.3907 29.7432 31.3907H3.58776V31.3876Z" fill="url(#paint2_linear_3101_564)"/>
<path d="M191.455 31.4287C190.759 31.4287 190.125 31.148 189.762 30.6803C189.403 30.217 189.37 29.6512 189.676 29.1653L209.407 2.16516C209.753 1.62799 210.414 1.30811 211.176 1.30811C211.938 1.30811 212.599 1.62799 212.945 2.16516L232.678 29.1653C232.981 29.6512 232.951 30.217 232.592 30.6803C232.229 31.148 231.596 31.4287 230.901 31.4287L229.466 31.4242C228.756 31.4211 227.926 30.8613 227.191 29.8866L211.178 7.64095L195.256 29.7644C194.131 31.4287 193.493 31.4287 192.878 31.4287H191.457H191.455Z" fill="url(#paint3_linear_3101_564)"/>
<path d="M274.763 31.3969C274.014 31.3969 273.336 31.0694 272.996 30.5428L272.958 30.4855L262.997 19.9142C261.535 18.0341 258.895 16.8677 256.093 16.8677H240.123C239.027 16.8677 238.135 16.1631 238.135 15.297V14.366C238.135 13.4999 239.027 12.7952 240.123 12.7952H270.197C270.914 12.7952 271.546 12.682 272.134 12.4512C273.766 11.8763 274.843 10.559 274.843 9.10595C274.843 8.15233 274.36 7.22286 273.481 6.48802L273.443 6.45784C272.536 5.77733 271.412 5.41821 270.195 5.41821H240.122C239.025 5.41821 238.133 4.71356 238.133 3.84746V2.91646C238.133 2.05035 239.025 1.3457 240.122 1.3457H270.195C272.813 1.3457 275.275 2.15145 277.128 3.61508C278.979 5.09531 280 7.04782 280 9.10897C280 12.2565 277.709 15.0887 274.299 16.1585C272.259 16.7983 269.223 16.83 268.634 16.83H268.445L266.453 16.7968L277.908 29.1743C278.188 29.6526 278.15 30.2018 277.799 30.6545C277.434 31.1223 276.802 31.4029 276.106 31.4029H274.759L274.763 31.3969Z" fill="url(#paint4_linear_3101_564)"/>
<path d="M99.7951 31.4282C99.0825 31.4282 98.433 31.1415 98.0605 30.6617C97.6918 30.1864 97.6593 29.607 97.9726 29.109L118.187 1.44796C118.54 0.898719 119.218 0.571289 120 0.571289C120.781 0.571289 121.457 0.898719 121.813 1.44796L142.027 29.109C142.338 29.607 142.306 30.1864 141.939 30.6602C141.566 31.14 140.919 31.4267 140.206 31.4267L138.735 31.4222C138.007 31.4192 137.159 30.8458 136.404 29.8469L119.998 7.05803L103.687 29.7232C102.533 31.4282 101.881 31.4282 101.249 31.4282H99.7932H99.7951Z" fill="url(#paint5_linear_3101_564)"/>
<path d="M112.887 5.61919L110.675 6.68598C108.705 7.63507 107.022 8.59926 105.528 9.62681C101.065 12.5873 97.2351 17.3705 98.729 21.3826L98.7653 21.4852L96.1538 24.8546L95.9093 24.4789C95.4756 23.8074 95.147 23.0967 94.9388 22.3649C92.9577 15.0498 101.442 8.6068 110.425 6.26198L112.887 5.61768V5.61919Z" fill="url(#paint6_linear_3101_564)"/>
<path d="M143.816 14.0999C143.625 18.3942 140.36 22.6085 134.631 25.9734C133.798 26.4622 132.928 26.9224 132.042 27.3449C130.286 28.1718 128.437 28.881 126.552 29.4649C122.412 30.743 118.14 31.3873 113.981 31.3873C112.208 31.3873 110.458 31.2696 108.741 31.0342L108.062 30.9452L110.691 27.4309L110.882 27.4445C115.351 27.7931 120.478 27.182 125.315 25.7334C126.869 25.2687 128.338 24.733 129.683 24.14C130.938 23.5848 132.117 22.9797 133.198 22.3309C136.119 20.5972 139.735 17.7257 140.391 13.9248C141.153 8.83078 135.322 5.67871 129.618 4.43387L126.976 3.85596L129.711 3.97365C133.448 4.12906 136.921 5.12946 139.485 6.77869C142.375 8.63916 143.869 11.1726 143.816 14.0999Z" fill="url(#paint7_linear_3101_564)"/>
<defs>
<linearGradient id="paint0_linear_3101_564" x1="67.4716" y1="1.33936" x2="67.4716" y2="31.3966" gradientUnits="userSpaceOnUse">
<stop stop-color="#0EF1F1"/>
<stop offset="1" stop-color="#3962F1"/>
</linearGradient>
<linearGradient id="paint1_linear_3101_564" x1="167.173" y1="1.35156" x2="167.173" y2="31.3892" gradientUnits="userSpaceOnUse">
<stop stop-color="#0EF1F1"/>
<stop offset="1" stop-color="#3962F1"/>
</linearGradient>
<linearGradient id="paint2_linear_3101_564" x1="20.9065" y1="1.35156" x2="20.9065" y2="31.3907" gradientUnits="userSpaceOnUse">
<stop stop-color="#0EF1F1"/>
<stop offset="1" stop-color="#3962F1"/>
</linearGradient>
<linearGradient id="paint3_linear_3101_564" x1="211.176" y1="1.30811" x2="211.176" y2="31.4287" gradientUnits="userSpaceOnUse">
<stop stop-color="#0EF1F1"/>
<stop offset="1" stop-color="#3962F1"/>
</linearGradient>
<linearGradient id="paint4_linear_3101_564" x1="259.066" y1="1.3457" x2="259.066" y2="31.4029" gradientUnits="userSpaceOnUse">
<stop stop-color="#0EF1F1"/>
<stop offset="1" stop-color="#3962F1"/>
</linearGradient>
<linearGradient id="paint5_linear_3101_564" x1="119.999" y1="0.571289" x2="119.999" y2="31.4282" gradientUnits="userSpaceOnUse">
<stop stop-color="#0EF1F1"/>
<stop offset="1" stop-color="#3962F1"/>
</linearGradient>
<linearGradient id="paint6_linear_3101_564" x1="103.768" y1="5.61768" x2="103.768" y2="24.8546" gradientUnits="userSpaceOnUse">
<stop stop-color="#0EF1F1"/>
<stop offset="1" stop-color="#3962F1"/>
</linearGradient>
<linearGradient id="paint7_linear_3101_564" x1="125.94" y1="3.85596" x2="125.94" y2="31.3873" gradientUnits="userSpaceOnUse">
<stop stop-color="#0EF1F1"/>
<stop offset="1" stop-color="#3962F1"/>
</linearGradient>
</defs>
</svg>
