<svg width="25" height="27" viewBox="0 0 25 27" fill="none" xmlns="http://www.w3.org/2000/svg">
  <g clip-path="url(#clip0_1852_1223)">
    <path fill-rule="evenodd" clip-rule="evenodd"
      d="M12.5 0.5C5.59375 0.5 0 6.3175 0 13.5C0 19.2525 3.57812 24.1112 8.54688 25.8337C9.17188 25.9475 9.40625 25.5575 9.40625 25.2162C9.40625 24.9075 9.39062 23.8837 9.39062 22.795C6.25 23.3962 5.4375 21.9987 5.1875 21.2675C5.04688 20.8937 4.4375 19.74 3.90625 19.4312C3.46875 19.1875 2.84375 18.5862 3.89062 18.57C4.875 18.5537 5.57812 19.5125 5.8125 19.9025C6.9375 21.8687 8.73438 21.3162 9.45312 20.975C9.5625 20.13 9.89062 19.5612 10.25 19.2362C7.46875 18.9112 4.5625 17.79 4.5625 12.8175C4.5625 11.4037 5.04688 10.2337 5.84375 9.32375C5.71875 8.99875 5.28125 7.66625 5.96875 5.87875C5.96875 5.87875 7.01562 5.5375 9.40625 7.21125C10.4062 6.91875 11.4688 6.7725 12.5313 6.7725C13.5938 6.7725 14.6563 6.91875 15.6563 7.21125C18.0469 5.52125 19.0938 5.87875 19.0938 5.87875C19.7812 7.66625 19.3438 8.99875 19.2188 9.32375C20.0156 10.2337 20.5 11.3875 20.5 12.8175C20.5 17.8062 17.5781 18.9112 14.7969 19.2362C15.25 19.6425 15.6406 20.4225 15.6406 21.6412C15.6406 23.38 15.625 24.7775 15.625 25.2162C15.625 25.5575 15.8594 25.9637 16.4844 25.8337C21.4219 24.1112 25 19.2362 25 13.5C25 6.3175 19.4062 0.5 12.5 0.5Z"
      fill="#0CCDCD" />
  </g>
  <defs>
    <clipPath id="clip0_1852_1223">
      <rect width="25" height="26" fill="white" transform="translate(0 0.5)" />
    </clipPath>
  </defs>
</svg>
  