<svg width="49" height="44" viewBox="0 0 49 44" fill="none" xmlns="http://www.w3.org/2000/svg">
<path d="M36.3805 30.6252L48.0031 23.9009C48.6192 23.5436 49 22.8812 49 22.1703V8.72152C49 8.01058 48.6192 7.34821 48.0031 6.99099L36.3805 0.266596C35.7644 -0.0905982 34.9995 -0.087128 34.3868 0.266596L22.7641 6.99099C22.1482 7.34821 21.7674 8.01058 21.7674 8.72152V32.7545L13.6163 37.4675L5.46521 32.7545V23.3252L13.6163 18.6123L18.9916 21.7229V15.3973L14.613 12.8623C14.3119 12.6889 13.966 12.5952 13.6163 12.5952C13.2666 12.5952 12.9207 12.6889 12.6195 12.8623L0.99683 19.5867C0.380738 19.9439 0 20.6063 0 21.3172V34.7661C0 35.477 0.380738 36.1392 0.99683 36.4965L12.6195 43.221C13.2355 43.5746 13.9971 43.5746 14.613 43.221L26.2357 36.4965C26.8519 36.1392 27.2325 35.477 27.2325 34.7661V10.7295L27.3779 10.6462L35.3803 6.0165L43.5314 10.7295V20.1589L35.3803 24.8719L30.0118 21.768V28.0937L34.3833 30.6218C34.9995 30.9755 35.7644 30.9755 36.377 30.6218L36.3805 30.6252Z" fill="url(#paint0_linear_1940_537)"/>
<defs>
<linearGradient id="paint0_linear_1940_537" x1="-0.159218" y1="36.0838" x2="46.942" y2="8.79822" gradientUnits="userSpaceOnUse">
<stop stop-color="#A726C1"/>
<stop offset="0.88" stop-color="#803BDF"/>
<stop offset="1" stop-color="#7B3FE4"/>
</linearGradient>
</defs>
</svg>
