<svg xmlns="http://www.w3.org/2000/svg" width="38" height="38" viewBox="0 0 38 38" fill="none">
  <g filter="url(#filter0_d_1051_16300)">
    <rect x="4" y="4" width="30" height="30" rx="8" fill="#222222" />
    <rect x="4.5" y="4.5" width="29" height="29" rx="7.5" stroke="#F6F8FF" />
  </g>
  <path
    d="M19.1874 16.7246C19.3146 16.7246 19.4417 16.7768 19.5321 16.8672C19.6222 16.9575 19.6736 17.0839 19.6737 17.2109V22.9307L20.7128 21.7285C20.7568 21.6753 20.8097 21.6376 20.8641 21.6104C20.9121 21.5864 20.975 21.5602 21.0477 21.5586C21.1148 21.5538 21.1761 21.5642 21.2343 21.582L21.3046 21.6035V21.6152C21.3403 21.6335 21.3739 21.6553 21.4032 21.6816C21.4969 21.7659 21.5577 21.8873 21.5673 22.0146C21.5768 22.1429 21.5344 22.2708 21.4501 22.3691H21.4491L19.5555 24.5596L19.5536 24.5615L19.5526 24.5605C19.5069 24.6108 19.4521 24.6532 19.3905 24.6816L19.3885 24.6836C19.3242 24.7112 19.2578 24.7246 19.1874 24.7246C19.1184 24.7246 19.0476 24.7109 18.9843 24.6816C18.9225 24.6531 18.8669 24.6109 18.8212 24.5605L18.8192 24.5596L16.9257 22.3691C16.8414 22.2708 16.798 22.1429 16.8075 22.0146C16.8169 21.8851 16.8736 21.7664 16.9735 21.6807C17.0717 21.5965 17.1989 21.5531 17.327 21.5625C17.4569 21.5718 17.5761 21.6284 17.662 21.7285L18.701 22.9307V17.2109C18.7011 17.084 18.7526 16.9575 18.8427 16.8672C18.933 16.7769 19.0602 16.7247 19.1874 16.7246ZM23.4442 13.2754C23.9842 13.2755 24.5003 13.492 24.8788 13.874C25.2615 14.2567 25.4754 14.7775 25.4755 15.3174V20.5898C25.4755 21.0625 25.3092 21.5199 25.0145 21.8828L24.8798 22.0332C24.4977 22.4153 23.9811 22.6327 23.4442 22.6328H22.8661C22.7389 22.6328 22.6117 22.5806 22.5214 22.4902C22.4313 22.4 22.3798 22.2734 22.3798 22.1465C22.3798 22.0193 22.4311 21.8921 22.5214 21.8018C22.6117 21.7114 22.7389 21.6602 22.8661 21.6602H23.4442C23.7248 21.66 23.9954 21.5465 24.1942 21.3477C24.3929 21.1489 24.5067 20.8784 24.5067 20.5938V15.3174C24.5067 15.0371 24.3934 14.7664 24.1942 14.5635L24.1161 14.4932C23.9273 14.3384 23.6897 14.2511 23.4442 14.251H14.9354C14.6547 14.251 14.3834 14.3646 14.1844 14.5635C13.9858 14.7622 13.873 15.0328 13.8729 15.3174V20.5898C13.8729 20.8704 13.9858 21.1417 14.1854 21.3447C14.3836 21.5462 14.654 21.6562 14.9354 21.6562H15.4677C15.5949 21.6563 15.722 21.7075 15.8124 21.7979C15.9027 21.8882 15.954 22.0154 15.954 22.1426C15.954 22.2698 15.9027 22.397 15.8124 22.4873C15.722 22.5776 15.5949 22.6289 15.4677 22.6289H14.9354C14.4625 22.6289 14.0073 22.4628 13.6473 22.165L13.4989 22.0293C13.1164 21.6466 12.9042 21.1258 12.9042 20.5859V15.3174C12.9042 14.7771 13.1207 14.2572 13.4989 13.875C13.8776 13.4924 14.3949 13.2754 14.9354 13.2754H23.4442Z"
    fill="white" stroke="white" stroke-width="0.2" />
  <defs>
    <filter id="filter0_d_1051_16300" x="0" y="0" width="38" height="38"
      filterUnits="userSpaceOnUse" color-interpolation-filters="sRGB">
      <feFlood flood-opacity="0" result="BackgroundImageFix" />
      <feColorMatrix in="SourceAlpha" type="matrix"
        values="0 0 0 0 0 0 0 0 0 0 0 0 0 0 0 0 0 0 127 0" result="hardAlpha" />
      <feOffset />
      <feGaussianBlur stdDeviation="2" />
      <feComposite in2="hardAlpha" operator="out" />
      <feColorMatrix type="matrix"
        values="0 0 0 0 0.223529 0 0 0 0 0.384314 0 0 0 0 0.945098 0 0 0 0.15 0" />
      <feBlend mode="normal" in2="BackgroundImageFix" result="effect1_dropShadow_1051_16300" />
      <feBlend mode="normal" in="SourceGraphic" in2="effect1_dropShadow_1051_16300" result="shape" />
    </filter>
  </defs>
</svg>