<svg width="49" height="44" viewBox="0 0 49 44" fill="none" xmlns="http://www.w3.org/2000/svg">
<path d="M48.7433 34.6399L40.6543 43.3129C40.4794 43.5013 40.2675 43.6516 40.0319 43.7545C39.7963 43.8574 39.542 43.9106 39.2849 43.9109H0.939838C0.756952 43.9107 0.578064 43.8573 0.425079 43.7571C0.272095 43.6569 0.151652 43.5143 0.0785007 43.3466C0.00534887 43.179 -0.0173377 42.9937 0.0132188 42.8134C0.0437753 42.6331 0.126249 42.4656 0.25054 42.3315L8.33039 33.6585C8.50534 33.4701 8.71723 33.3198 8.95285 33.2169C9.18846 33.114 9.44275 33.0608 9.69985 33.0605H48.0449C48.2294 33.0567 48.411 33.1076 48.5667 33.2067C48.7225 33.3058 48.8454 33.4488 48.9201 33.6176C48.9947 33.7865 49.0178 33.9736 48.9863 34.1555C48.9549 34.3374 48.8703 34.5059 48.7433 34.6399ZM40.6543 17.1707C40.4787 16.9832 40.2667 16.8335 40.0312 16.7306C39.7957 16.6278 39.5418 16.5741 39.2849 16.5728H0.939838C0.756952 16.5729 0.578064 16.6263 0.425079 16.7265C0.272095 16.8267 0.151652 16.9694 0.0785007 17.137C0.00534887 17.3046 -0.0173377 17.4899 0.0132188 17.6702C0.0437753 17.8505 0.126249 18.018 0.25054 18.1521L8.33039 26.8297C8.50601 27.0172 8.71804 27.1669 8.9535 27.2698C9.18896 27.3726 9.44292 27.4263 9.69985 27.4277H48.0449C48.2274 27.4267 48.4056 27.3726 48.5579 27.272C48.7102 27.1715 48.83 27.0288 48.9026 26.8614C48.9752 26.6939 48.9975 26.509 48.9668 26.3291C48.936 26.1492 48.8536 25.9821 48.7296 25.8483L40.6543 17.1707ZM0.939838 10.9399H39.2849C39.542 10.9397 39.7963 10.8865 40.0319 10.7836C40.2675 10.6807 40.4794 10.5303 40.6543 10.3419L48.7433 1.66895C48.8381 1.56871 48.9096 1.44877 48.9527 1.31769C48.9958 1.18661 49.0094 1.04763 48.9925 0.910692C48.9756 0.773753 48.9287 0.642233 48.8551 0.525535C48.7815 0.408836 48.683 0.309842 48.5666 0.235628C48.4109 0.136552 48.2294 0.0857314 48.0449 0.0895566H9.69985C9.44275 0.0898272 9.18846 0.143063 8.95285 0.245946C8.71723 0.348828 8.50534 0.499149 8.33039 0.687535L0.25054 9.3605C0.126249 9.49465 0.0437753 9.66214 0.0132188 9.84245C-0.0173377 10.0228 0.00534887 10.2081 0.0785007 10.3757C0.151652 10.5433 0.272095 10.6859 0.425079 10.7861C0.578064 10.8864 0.756952 10.9398 0.939838 10.9399Z" fill="url(#paint0_linear_1940_548)"/>
<defs>
<linearGradient id="paint0_linear_1940_548" x1="4.13526" y1="44.9562" x2="44.3411" y2="-0.372933" gradientUnits="userSpaceOnUse">
<stop offset="0.08" stop-color="#9945FF"/>
<stop offset="0.3" stop-color="#8752F3"/>
<stop offset="0.5" stop-color="#5497D5"/>
<stop offset="0.6" stop-color="#43B4CA"/>
<stop offset="0.72" stop-color="#28E0B9"/>
<stop offset="0.97" stop-color="#19FB9B"/>
</linearGradient>
</defs>
</svg>
