<svg width="27" height="23" viewBox="0 0 27 23" fill="none" xmlns="http://www.w3.org/2000/svg">
  <g clip-path="url(#clip0_1852_1230)">
    <path fill-rule="evenodd" clip-rule="evenodd"
      d="M0.476826 11.0483L6.69772 13.2217L9.10561 20.4701C9.25927 20.9341 9.86599 21.1061 10.2684 20.7977L13.736 18.1513C14.0988 17.8741 14.6168 17.8607 14.997 18.1187L21.2512 22.3692C21.6821 22.6613 22.2919 22.4419 22.3997 21.9541L26.9842 1.32699C27.1014 0.794744 26.5438 0.351452 26.002 0.547153L0.47049 9.76583C-0.159996 9.99267 -0.15366 10.8274 0.47841 11.0497L0.476826 11.0483ZM8.7175 12.0638L20.8757 5.05568C21.0943 4.92966 21.3193 5.2069 21.1308 5.36998L11.0969 14.0994C10.7436 14.4063 10.5171 14.8185 10.4521 15.2647L10.11 17.6354C10.064 17.9512 9.59035 17.9838 9.49531 17.6769L8.18048 13.3537C8.02998 12.86 8.25018 12.3337 8.71591 12.0653L8.7175 12.0638Z"
      fill="#0CCDCD" />
  </g>
  <defs>
    <clipPath id="clip0_1852_1230">
      <rect width="27" height="22" fill="white" transform="translate(0 0.5)" />
    </clipPath>
  </defs>
</svg>
  