<svg width="50" height="50" viewBox="0 0 50 50" fill="none" xmlns="http://www.w3.org/2000/svg">
<g filter="url(#filter0_i_1165_756)">
<path d="M42.9242 33.8359L27.2166 25L42.9242 16.1641C43.1646 16.0174 43.3387 15.7832 43.4097 15.5107C43.4808 15.2382 43.4434 14.9488 43.3053 14.7034C43.1673 14.4579 42.9393 14.2757 42.6695 14.195C42.3998 14.1142 42.1092 14.1414 41.859 14.2707L26.0873 23.1424V5.4348C26.0873 5.14652 25.9727 4.87005 25.7689 4.6662C25.5651 4.46236 25.2886 4.34784 25.0003 4.34784C24.712 4.34784 24.4356 4.46236 24.2317 4.6662C24.0279 4.87005 23.9133 5.14652 23.9133 5.4348V23.1424L8.14161 14.2707C7.89144 14.1414 7.60086 14.1142 7.33107 14.195C7.06128 14.2757 6.83335 14.4579 6.69528 14.7034C6.55721 14.9488 6.51977 15.2382 6.59086 15.5107C6.66195 15.7832 6.83602 16.0174 7.07639 16.1641L22.784 25L7.07639 33.8359C6.86727 33.9538 6.70309 34.1377 6.60947 34.3588C6.51586 34.5799 6.49807 34.8257 6.5589 35.058C6.61973 35.2903 6.75574 35.4958 6.94571 35.6427C7.13568 35.7895 7.36891 35.8693 7.609 35.8696C7.79535 35.8698 7.97855 35.8215 8.14052 35.7294L23.9133 26.8576V44.5652C23.9133 44.8535 24.0279 45.13 24.2317 45.3338C24.4356 45.5377 24.712 45.6522 25.0003 45.6522C25.2886 45.6522 25.5651 45.5377 25.7689 45.3338C25.9727 45.13 26.0873 44.8535 26.0873 44.5652V26.8576L41.859 35.7294C42.0213 35.8217 42.2049 35.87 42.3916 35.8696C42.6318 35.8695 42.8652 35.7899 43.0553 35.6432C43.2455 35.4964 43.3817 35.2908 43.4427 35.0585C43.5036 34.8262 43.4859 34.5802 43.3923 34.359C43.2987 34.1378 43.1334 33.9539 42.9242 33.8359Z" fill="url(#paint0_linear_1165_756)"/>
</g>
<g filter="url(#filter1_bi_1165_756)">
<path d="M25.0002 30.4348C23.9253 30.4348 22.8746 30.116 21.9808 29.5188C21.0871 28.9216 20.3905 28.0729 19.9791 27.0798C19.5678 26.0867 19.4602 24.9939 19.6699 23.9397C19.8796 22.8855 20.3972 21.9171 21.1572 21.157C21.9173 20.3969 22.8857 19.8793 23.9399 19.6696C24.9942 19.4599 26.0869 19.5675 27.08 19.9789C28.0731 20.3902 28.9219 21.0868 29.5191 21.9806C30.1163 22.8743 30.435 23.9251 30.435 25C30.4333 26.4408 29.8601 27.8222 28.8413 28.841C27.8224 29.8599 26.4411 30.433 25.0002 30.4348Z" fill="url(#paint1_linear_1165_756)"/>
<path d="M25 30.2848C23.9549 30.2847 22.9332 29.9748 22.0641 29.3941C21.1951 28.8134 20.5177 27.988 20.1177 27.0224C19.7177 26.0567 19.6131 24.9941 19.817 23.969C20.0209 22.9438 20.5242 22.0022 21.2633 21.2631C22.0024 20.524 22.9441 20.0206 23.9692 19.8167C24.9944 19.6128 26.0569 19.7175 27.0226 20.1175C27.9883 20.5175 28.8137 21.1948 29.3944 22.0639C29.975 22.9329 30.285 23.9546 30.285 24.9998C30.2833 26.4009 29.726 27.7442 28.7352 28.735C27.7445 29.7257 26.4012 30.2831 25 30.2848Z" stroke="url(#paint2_linear_1165_756)" stroke-opacity="0.1" stroke-width="0.3"/>
</g>
<g filter="url(#filter2_bi_1165_756)">
<path d="M42.3908 20.6522C45.3924 20.6522 47.8256 18.2189 47.8256 15.2174C47.8256 12.2158 45.3924 9.78259 42.3908 9.78259C39.3893 9.78259 36.9561 12.2158 36.9561 15.2174C36.9561 18.2189 39.3893 20.6522 42.3908 20.6522Z" fill="url(#paint3_linear_1165_756)"/>
<path d="M47.6756 15.2174C47.6756 18.1361 45.3095 20.5022 42.3908 20.5022C39.4721 20.5022 37.1061 18.1361 37.1061 15.2174C37.1061 12.2987 39.4721 9.93259 42.3908 9.93259C45.3095 9.93259 47.6756 12.2987 47.6756 15.2174Z" stroke="url(#paint4_linear_1165_756)" stroke-opacity="0.1" stroke-width="0.3"/>
</g>
<g filter="url(#filter3_i_1165_756)">
<path d="M42.3916 35.8696C42.1034 35.8696 41.8269 35.755 41.623 35.5512C41.4192 35.3474 41.3047 35.0709 41.3047 34.7826V15.2174C41.3047 14.9291 41.4192 14.6526 41.623 14.4488C41.8269 14.245 42.1034 14.1304 42.3916 14.1304C42.6799 14.1304 42.9564 14.245 43.1602 14.4488C43.3641 14.6526 43.4786 14.9291 43.4786 15.2174V34.7826C43.4786 35.0709 43.3641 35.3474 43.1602 35.5512C42.9564 35.755 42.6799 35.8696 42.3916 35.8696Z" fill="url(#paint5_linear_1165_756)"/>
</g>
<g filter="url(#filter4_bi_1165_756)">
<path d="M42.3908 40.2173C45.3924 40.2173 47.8256 37.7841 47.8256 34.7826C47.8256 31.781 45.3924 29.3478 42.3908 29.3478C39.3893 29.3478 36.9561 31.781 36.9561 34.7826C36.9561 37.7841 39.3893 40.2173 42.3908 40.2173Z" fill="url(#paint6_linear_1165_756)"/>
<path d="M47.6756 34.7826C47.6756 37.7013 45.3095 40.0673 42.3908 40.0673C39.4721 40.0673 37.1061 37.7013 37.1061 34.7826C37.1061 31.8639 39.4721 29.4978 42.3908 29.4978C45.3095 29.4978 47.6756 31.8639 47.6756 34.7826Z" stroke="url(#paint7_linear_1165_756)" stroke-opacity="0.1" stroke-width="0.3"/>
</g>
<g filter="url(#filter5_i_1165_756)">
<path d="M24.9997 45.6523C24.7596 45.6523 24.5262 45.5726 24.336 45.4259C24.1458 45.2792 24.0097 45.0736 23.9487 44.8413C23.8877 44.609 23.9054 44.363 23.999 44.1418C24.0926 43.9206 24.2568 43.7366 24.466 43.6186L41.8573 33.836C42.1075 33.7068 42.3981 33.6796 42.6679 33.7603C42.9377 33.841 43.1656 34.0233 43.3037 34.2687C43.4417 34.5142 43.4792 34.8036 43.4081 35.0761C43.337 35.3486 43.1629 35.5828 42.9226 35.7295L25.5313 45.5121C25.3693 45.6043 25.1861 45.6526 24.9997 45.6523Z" fill="url(#paint8_linear_1165_756)"/>
</g>
<g filter="url(#filter6_bi_1165_756)">
<path d="M25.0002 49.9999C28.0018 49.9999 30.435 47.5667 30.435 44.5652C30.435 41.5636 28.0018 39.1304 25.0002 39.1304C21.9987 39.1304 19.5654 41.5636 19.5654 44.5652C19.5654 47.5667 21.9987 49.9999 25.0002 49.9999Z" fill="url(#paint9_linear_1165_756)"/>
<path d="M30.285 44.5652C30.285 47.4839 27.9189 49.8499 25.0002 49.8499C22.0815 49.8499 19.7154 47.4839 19.7154 44.5652C19.7154 41.6464 22.0815 39.2804 25.0002 39.2804C27.9189 39.2804 30.285 41.6464 30.285 44.5652Z" stroke="url(#paint10_linear_1165_756)" stroke-opacity="0.1" stroke-width="0.3"/>
</g>
<g filter="url(#filter7_i_1165_756)">
<path d="M24.9992 45.6523C24.8129 45.6526 24.6297 45.6043 24.4677 45.5121L7.0764 35.7295C6.83603 35.5828 6.66196 35.3486 6.59087 35.0761C6.51978 34.8036 6.55722 34.5142 6.69529 34.2687C6.83336 34.0233 7.06129 33.841 7.33108 33.7603C7.60086 33.6796 7.89144 33.7068 8.14162 33.836L25.5329 43.6186C25.7421 43.7366 25.9063 43.9206 25.9999 44.1418C26.0935 44.363 26.1112 44.609 26.0503 44.8413C25.9893 45.0736 25.8531 45.2792 25.663 45.4259C25.4728 45.5726 25.2394 45.6523 24.9992 45.6523Z" fill="url(#paint11_linear_1165_756)"/>
</g>
<g filter="url(#filter8_bi_1165_756)">
<path d="M7.60861 40.2173C10.6102 40.2173 13.0434 37.7841 13.0434 34.7826C13.0434 31.781 10.6102 29.3478 7.60861 29.3478C4.60706 29.3478 2.17383 31.781 2.17383 34.7826C2.17383 37.7841 4.60706 40.2173 7.60861 40.2173Z" fill="url(#paint12_linear_1165_756)"/>
<path d="M12.8934 34.7826C12.8934 37.7013 10.5273 40.0673 7.60861 40.0673C4.68991 40.0673 2.32383 37.7013 2.32383 34.7826C2.32383 31.8639 4.68991 29.4978 7.60861 29.4978C10.5273 29.4978 12.8934 31.8639 12.8934 34.7826Z" stroke="url(#paint13_linear_1165_756)" stroke-opacity="0.1" stroke-width="0.3"/>
</g>
<g filter="url(#filter9_i_1165_756)">
<path d="M7.60844 35.8696C7.32016 35.8696 7.04369 35.755 6.83985 35.5512C6.636 35.3474 6.52148 35.0709 6.52148 34.7826V15.2174C6.52148 14.9291 6.636 14.6526 6.83985 14.4488C7.04369 14.245 7.32016 14.1304 7.60844 14.1304C7.89672 14.1304 8.17319 14.245 8.37704 14.4488C8.58088 14.6526 8.6954 14.9291 8.6954 15.2174V34.7826C8.6954 35.0709 8.58088 35.3474 8.37704 35.5512C8.17319 35.755 7.89672 35.8696 7.60844 35.8696Z" fill="url(#paint14_linear_1165_756)"/>
</g>
<g filter="url(#filter10_bi_1165_756)">
<path d="M7.60861 20.6522C10.6102 20.6522 13.0434 18.2189 13.0434 15.2174C13.0434 12.2158 10.6102 9.78259 7.60861 9.78259C4.60706 9.78259 2.17383 12.2158 2.17383 15.2174C2.17383 18.2189 4.60706 20.6522 7.60861 20.6522Z" fill="url(#paint15_linear_1165_756)"/>
<path d="M12.8934 15.2174C12.8934 18.1361 10.5273 20.5022 7.60861 20.5022C4.68991 20.5022 2.32383 18.1361 2.32383 15.2174C2.32383 12.2987 4.68991 9.93259 7.60861 9.93259C10.5273 9.93259 12.8934 12.2987 12.8934 15.2174Z" stroke="url(#paint16_linear_1165_756)" stroke-opacity="0.1" stroke-width="0.3"/>
</g>
<g filter="url(#filter11_i_1165_756)">
<path d="M7.60813 16.3042C7.36795 16.3041 7.13455 16.2245 6.9444 16.0777C6.75425 15.931 6.61805 15.7254 6.55708 15.4931C6.49612 15.2608 6.51382 15.0148 6.60741 14.7936C6.70101 14.5724 6.86524 14.3885 7.07444 14.2705L24.4657 4.48786C24.5904 4.41181 24.729 4.36165 24.8734 4.34036C25.0179 4.31907 25.1651 4.32709 25.3064 4.36394C25.4476 4.4008 25.58 4.46573 25.6956 4.55486C25.8112 4.644 25.9077 4.75551 25.9793 4.88275C26.0509 5.00998 26.0961 5.15033 26.1122 5.29543C26.1284 5.44052 26.1152 5.58737 26.0733 5.72724C26.0315 5.8671 25.9619 5.9971 25.8687 6.10948C25.7755 6.22186 25.6607 6.31432 25.531 6.38134L8.13966 16.1639C7.97769 16.2561 7.79449 16.3044 7.60813 16.3042Z" fill="url(#paint17_linear_1165_756)"/>
</g>
<g filter="url(#filter12_bi_1165_756)">
<path d="M25.0002 10.8696C28.0018 10.8696 30.435 8.43633 30.435 5.43478C30.435 2.43324 28.0018 0 25.0002 0C21.9987 0 19.5654 2.43324 19.5654 5.43478C19.5654 8.43633 21.9987 10.8696 25.0002 10.8696Z" fill="url(#paint18_linear_1165_756)"/>
<path d="M30.285 5.43478C30.285 8.35349 27.9189 10.7196 25.0002 10.7196C22.0815 10.7196 19.7154 8.35349 19.7154 5.43478C19.7154 2.51608 22.0815 0.15 25.0002 0.15C27.9189 0.15 30.285 2.51608 30.285 5.43478Z" stroke="url(#paint19_linear_1165_756)" stroke-opacity="0.1" stroke-width="0.3"/>
</g>
<g filter="url(#filter13_i_1165_756)">
<path d="M38.3039 11.6719L25.5332 4.48825C25.283 4.35898 24.9925 4.33184 24.7227 4.41255C24.4529 4.49326 24.225 4.67553 24.0869 4.92096C23.9488 5.16639 23.9114 5.45582 23.9825 5.7283C24.0536 6.00078 24.2276 6.23504 24.468 6.38173L37.2397 13.5665C37.462 12.8693 37.8241 12.2246 38.3039 11.6719Z" fill="url(#paint20_linear_1165_756)"/>
</g>
<defs>
<filter id="filter0_i_1165_756" x="6.52344" y="4.34784" width="36.9551" height="43.3044" filterUnits="userSpaceOnUse" color-interpolation-filters="sRGB">
<feFlood flood-opacity="0" result="BackgroundImageFix"/>
<feBlend mode="normal" in="SourceGraphic" in2="BackgroundImageFix" result="shape"/>
<feColorMatrix in="SourceAlpha" type="matrix" values="0 0 0 0 0 0 0 0 0 0 0 0 0 0 0 0 0 0 127 0" result="hardAlpha"/>
<feOffset dy="2"/>
<feGaussianBlur stdDeviation="1"/>
<feComposite in2="hardAlpha" operator="arithmetic" k2="-1" k3="1"/>
<feColorMatrix type="matrix" values="0 0 0 0 1 0 0 0 0 1 0 0 0 0 1 0 0 0 0.4 0"/>
<feBlend mode="normal" in2="shape" result="effect1_innerShadow_1165_756"/>
</filter>
<filter id="filter1_bi_1165_756" x="13.5654" y="13.5652" width="22.8691" height="22.8696" filterUnits="userSpaceOnUse" color-interpolation-filters="sRGB">
<feFlood flood-opacity="0" result="BackgroundImageFix"/>
<feGaussianBlur in="BackgroundImageFix" stdDeviation="3"/>
<feComposite in2="SourceAlpha" operator="in" result="effect1_backgroundBlur_1165_756"/>
<feBlend mode="normal" in="SourceGraphic" in2="effect1_backgroundBlur_1165_756" result="shape"/>
<feColorMatrix in="SourceAlpha" type="matrix" values="0 0 0 0 0 0 0 0 0 0 0 0 0 0 0 0 0 0 127 0" result="hardAlpha"/>
<feOffset dy="2"/>
<feGaussianBlur stdDeviation="1.5"/>
<feComposite in2="hardAlpha" operator="arithmetic" k2="-1" k3="1"/>
<feColorMatrix type="matrix" values="0 0 0 0 1 0 0 0 0 1 0 0 0 0 1 0 0 0 0.4 0"/>
<feBlend mode="normal" in2="shape" result="effect2_innerShadow_1165_756"/>
</filter>
<filter id="filter2_bi_1165_756" x="30.9561" y="3.78259" width="22.8691" height="22.8696" filterUnits="userSpaceOnUse" color-interpolation-filters="sRGB">
<feFlood flood-opacity="0" result="BackgroundImageFix"/>
<feGaussianBlur in="BackgroundImageFix" stdDeviation="3"/>
<feComposite in2="SourceAlpha" operator="in" result="effect1_backgroundBlur_1165_756"/>
<feBlend mode="normal" in="SourceGraphic" in2="effect1_backgroundBlur_1165_756" result="shape"/>
<feColorMatrix in="SourceAlpha" type="matrix" values="0 0 0 0 0 0 0 0 0 0 0 0 0 0 0 0 0 0 127 0" result="hardAlpha"/>
<feOffset dy="2"/>
<feGaussianBlur stdDeviation="1.5"/>
<feComposite in2="hardAlpha" operator="arithmetic" k2="-1" k3="1"/>
<feColorMatrix type="matrix" values="0 0 0 0 1 0 0 0 0 1 0 0 0 0 1 0 0 0 0.4 0"/>
<feBlend mode="normal" in2="shape" result="effect2_innerShadow_1165_756"/>
</filter>
<filter id="filter3_i_1165_756" x="41.3047" y="14.1304" width="2.17383" height="23.7391" filterUnits="userSpaceOnUse" color-interpolation-filters="sRGB">
<feFlood flood-opacity="0" result="BackgroundImageFix"/>
<feBlend mode="normal" in="SourceGraphic" in2="BackgroundImageFix" result="shape"/>
<feColorMatrix in="SourceAlpha" type="matrix" values="0 0 0 0 0 0 0 0 0 0 0 0 0 0 0 0 0 0 127 0" result="hardAlpha"/>
<feOffset dy="2"/>
<feGaussianBlur stdDeviation="1"/>
<feComposite in2="hardAlpha" operator="arithmetic" k2="-1" k3="1"/>
<feColorMatrix type="matrix" values="0 0 0 0 1 0 0 0 0 1 0 0 0 0 1 0 0 0 0.4 0"/>
<feBlend mode="normal" in2="shape" result="effect1_innerShadow_1165_756"/>
</filter>
<filter id="filter4_bi_1165_756" x="30.9561" y="23.3478" width="22.8691" height="22.8695" filterUnits="userSpaceOnUse" color-interpolation-filters="sRGB">
<feFlood flood-opacity="0" result="BackgroundImageFix"/>
<feGaussianBlur in="BackgroundImageFix" stdDeviation="3"/>
<feComposite in2="SourceAlpha" operator="in" result="effect1_backgroundBlur_1165_756"/>
<feBlend mode="normal" in="SourceGraphic" in2="effect1_backgroundBlur_1165_756" result="shape"/>
<feColorMatrix in="SourceAlpha" type="matrix" values="0 0 0 0 0 0 0 0 0 0 0 0 0 0 0 0 0 0 127 0" result="hardAlpha"/>
<feOffset dy="2"/>
<feGaussianBlur stdDeviation="1.5"/>
<feComposite in2="hardAlpha" operator="arithmetic" k2="-1" k3="1"/>
<feColorMatrix type="matrix" values="0 0 0 0 1 0 0 0 0 1 0 0 0 0 1 0 0 0 0.4 0"/>
<feBlend mode="normal" in2="shape" result="effect2_innerShadow_1165_756"/>
</filter>
<filter id="filter5_i_1165_756" x="23.9131" y="33.7147" width="19.5303" height="13.9376" filterUnits="userSpaceOnUse" color-interpolation-filters="sRGB">
<feFlood flood-opacity="0" result="BackgroundImageFix"/>
<feBlend mode="normal" in="SourceGraphic" in2="BackgroundImageFix" result="shape"/>
<feColorMatrix in="SourceAlpha" type="matrix" values="0 0 0 0 0 0 0 0 0 0 0 0 0 0 0 0 0 0 127 0" result="hardAlpha"/>
<feOffset dy="2"/>
<feGaussianBlur stdDeviation="1"/>
<feComposite in2="hardAlpha" operator="arithmetic" k2="-1" k3="1"/>
<feColorMatrix type="matrix" values="0 0 0 0 1 0 0 0 0 1 0 0 0 0 1 0 0 0 0.4 0"/>
<feBlend mode="normal" in2="shape" result="effect1_innerShadow_1165_756"/>
</filter>
<filter id="filter6_bi_1165_756" x="13.5654" y="33.1304" width="22.8691" height="22.8696" filterUnits="userSpaceOnUse" color-interpolation-filters="sRGB">
<feFlood flood-opacity="0" result="BackgroundImageFix"/>
<feGaussianBlur in="BackgroundImageFix" stdDeviation="3"/>
<feComposite in2="SourceAlpha" operator="in" result="effect1_backgroundBlur_1165_756"/>
<feBlend mode="normal" in="SourceGraphic" in2="effect1_backgroundBlur_1165_756" result="shape"/>
<feColorMatrix in="SourceAlpha" type="matrix" values="0 0 0 0 0 0 0 0 0 0 0 0 0 0 0 0 0 0 127 0" result="hardAlpha"/>
<feOffset dy="2"/>
<feGaussianBlur stdDeviation="1.5"/>
<feComposite in2="hardAlpha" operator="arithmetic" k2="-1" k3="1"/>
<feColorMatrix type="matrix" values="0 0 0 0 1 0 0 0 0 1 0 0 0 0 1 0 0 0 0.4 0"/>
<feBlend mode="normal" in2="shape" result="effect2_innerShadow_1165_756"/>
</filter>
<filter id="filter7_i_1165_756" x="6.55566" y="33.7147" width="19.5303" height="13.9376" filterUnits="userSpaceOnUse" color-interpolation-filters="sRGB">
<feFlood flood-opacity="0" result="BackgroundImageFix"/>
<feBlend mode="normal" in="SourceGraphic" in2="BackgroundImageFix" result="shape"/>
<feColorMatrix in="SourceAlpha" type="matrix" values="0 0 0 0 0 0 0 0 0 0 0 0 0 0 0 0 0 0 127 0" result="hardAlpha"/>
<feOffset dy="2"/>
<feGaussianBlur stdDeviation="1"/>
<feComposite in2="hardAlpha" operator="arithmetic" k2="-1" k3="1"/>
<feColorMatrix type="matrix" values="0 0 0 0 1 0 0 0 0 1 0 0 0 0 1 0 0 0 0.4 0"/>
<feBlend mode="normal" in2="shape" result="effect1_innerShadow_1165_756"/>
</filter>
<filter id="filter8_bi_1165_756" x="-3.82617" y="23.3478" width="22.8691" height="22.8695" filterUnits="userSpaceOnUse" color-interpolation-filters="sRGB">
<feFlood flood-opacity="0" result="BackgroundImageFix"/>
<feGaussianBlur in="BackgroundImageFix" stdDeviation="3"/>
<feComposite in2="SourceAlpha" operator="in" result="effect1_backgroundBlur_1165_756"/>
<feBlend mode="normal" in="SourceGraphic" in2="effect1_backgroundBlur_1165_756" result="shape"/>
<feColorMatrix in="SourceAlpha" type="matrix" values="0 0 0 0 0 0 0 0 0 0 0 0 0 0 0 0 0 0 127 0" result="hardAlpha"/>
<feOffset dy="2"/>
<feGaussianBlur stdDeviation="1.5"/>
<feComposite in2="hardAlpha" operator="arithmetic" k2="-1" k3="1"/>
<feColorMatrix type="matrix" values="0 0 0 0 1 0 0 0 0 1 0 0 0 0 1 0 0 0 0.4 0"/>
<feBlend mode="normal" in2="shape" result="effect2_innerShadow_1165_756"/>
</filter>
<filter id="filter9_i_1165_756" x="6.52148" y="14.1304" width="2.17383" height="23.7391" filterUnits="userSpaceOnUse" color-interpolation-filters="sRGB">
<feFlood flood-opacity="0" result="BackgroundImageFix"/>
<feBlend mode="normal" in="SourceGraphic" in2="BackgroundImageFix" result="shape"/>
<feColorMatrix in="SourceAlpha" type="matrix" values="0 0 0 0 0 0 0 0 0 0 0 0 0 0 0 0 0 0 127 0" result="hardAlpha"/>
<feOffset dy="2"/>
<feGaussianBlur stdDeviation="1"/>
<feComposite in2="hardAlpha" operator="arithmetic" k2="-1" k3="1"/>
<feColorMatrix type="matrix" values="0 0 0 0 1 0 0 0 0 1 0 0 0 0 1 0 0 0 0.4 0"/>
<feBlend mode="normal" in2="shape" result="effect1_innerShadow_1165_756"/>
</filter>
<filter id="filter10_bi_1165_756" x="-3.82617" y="3.78259" width="22.8691" height="22.8696" filterUnits="userSpaceOnUse" color-interpolation-filters="sRGB">
<feFlood flood-opacity="0" result="BackgroundImageFix"/>
<feGaussianBlur in="BackgroundImageFix" stdDeviation="3"/>
<feComposite in2="SourceAlpha" operator="in" result="effect1_backgroundBlur_1165_756"/>
<feBlend mode="normal" in="SourceGraphic" in2="effect1_backgroundBlur_1165_756" result="shape"/>
<feColorMatrix in="SourceAlpha" type="matrix" values="0 0 0 0 0 0 0 0 0 0 0 0 0 0 0 0 0 0 127 0" result="hardAlpha"/>
<feOffset dy="2"/>
<feGaussianBlur stdDeviation="1.5"/>
<feComposite in2="hardAlpha" operator="arithmetic" k2="-1" k3="1"/>
<feColorMatrix type="matrix" values="0 0 0 0 1 0 0 0 0 1 0 0 0 0 1 0 0 0 0.4 0"/>
<feBlend mode="normal" in2="shape" result="effect2_innerShadow_1165_756"/>
</filter>
<filter id="filter11_i_1165_756" x="6.52148" y="4.32874" width="19.5977" height="13.9754" filterUnits="userSpaceOnUse" color-interpolation-filters="sRGB">
<feFlood flood-opacity="0" result="BackgroundImageFix"/>
<feBlend mode="normal" in="SourceGraphic" in2="BackgroundImageFix" result="shape"/>
<feColorMatrix in="SourceAlpha" type="matrix" values="0 0 0 0 0 0 0 0 0 0 0 0 0 0 0 0 0 0 127 0" result="hardAlpha"/>
<feOffset dy="2"/>
<feGaussianBlur stdDeviation="1"/>
<feComposite in2="hardAlpha" operator="arithmetic" k2="-1" k3="1"/>
<feColorMatrix type="matrix" values="0 0 0 0 1 0 0 0 0 1 0 0 0 0 1 0 0 0 0.4 0"/>
<feBlend mode="normal" in2="shape" result="effect1_innerShadow_1165_756"/>
</filter>
<filter id="filter12_bi_1165_756" x="13.5654" y="-6" width="22.8691" height="22.8696" filterUnits="userSpaceOnUse" color-interpolation-filters="sRGB">
<feFlood flood-opacity="0" result="BackgroundImageFix"/>
<feGaussianBlur in="BackgroundImageFix" stdDeviation="3"/>
<feComposite in2="SourceAlpha" operator="in" result="effect1_backgroundBlur_1165_756"/>
<feBlend mode="normal" in="SourceGraphic" in2="effect1_backgroundBlur_1165_756" result="shape"/>
<feColorMatrix in="SourceAlpha" type="matrix" values="0 0 0 0 0 0 0 0 0 0 0 0 0 0 0 0 0 0 127 0" result="hardAlpha"/>
<feOffset dy="2"/>
<feGaussianBlur stdDeviation="1.5"/>
<feComposite in2="hardAlpha" operator="arithmetic" k2="-1" k3="1"/>
<feColorMatrix type="matrix" values="0 0 0 0 1 0 0 0 0 1 0 0 0 0 1 0 0 0 0.4 0"/>
<feBlend mode="normal" in2="shape" result="effect2_innerShadow_1165_756"/>
</filter>
<filter id="filter13_i_1165_756" x="23.9473" y="4.36694" width="14.3564" height="11.1996" filterUnits="userSpaceOnUse" color-interpolation-filters="sRGB">
<feFlood flood-opacity="0" result="BackgroundImageFix"/>
<feBlend mode="normal" in="SourceGraphic" in2="BackgroundImageFix" result="shape"/>
<feColorMatrix in="SourceAlpha" type="matrix" values="0 0 0 0 0 0 0 0 0 0 0 0 0 0 0 0 0 0 127 0" result="hardAlpha"/>
<feOffset dy="2"/>
<feGaussianBlur stdDeviation="1"/>
<feComposite in2="hardAlpha" operator="arithmetic" k2="-1" k3="1"/>
<feColorMatrix type="matrix" values="0 0 0 0 1 0 0 0 0 1 0 0 0 0 1 0 0 0 0.4 0"/>
<feBlend mode="normal" in2="shape" result="effect1_innerShadow_1165_756"/>
</filter>
<linearGradient id="paint0_linear_1165_756" x1="46.863" y1="4.34784" x2="1.9489" y2="10.1322" gradientUnits="userSpaceOnUse">
<stop stop-color="#19FB9B"/>
<stop offset="1" stop-color="#8C01FA"/>
</linearGradient>
<linearGradient id="paint1_linear_1165_756" x1="31.4306" y1="19.5652" x2="18.2734" y2="21.4591" gradientUnits="userSpaceOnUse">
<stop stop-color="#19FB9B"/>
<stop offset="1" stop-color="#8C01FA"/>
</linearGradient>
<linearGradient id="paint2_linear_1165_756" x1="19.9051" y1="20.0593" x2="30.435" y2="20.0593" gradientUnits="userSpaceOnUse">
<stop stop-color="#C8A6FF"/>
<stop offset="1" stop-color="#69CFB5"/>
</linearGradient>
<linearGradient id="paint3_linear_1165_756" x1="48.8212" y1="9.78259" x2="35.664" y2="11.6765" gradientUnits="userSpaceOnUse">
<stop stop-color="#19FB9B"/>
<stop offset="1" stop-color="#8C01FA"/>
</linearGradient>
<linearGradient id="paint4_linear_1165_756" x1="37.2957" y1="10.2767" x2="47.8256" y2="10.2767" gradientUnits="userSpaceOnUse">
<stop stop-color="#C8A6FF"/>
<stop offset="1" stop-color="#69CFB5"/>
</linearGradient>
<linearGradient id="paint5_linear_1165_756" x1="43.6777" y1="14.1304" x2="40.9923" y2="14.1691" gradientUnits="userSpaceOnUse">
<stop stop-color="#19FB9B"/>
<stop offset="1" stop-color="#8C01FA"/>
</linearGradient>
<linearGradient id="paint6_linear_1165_756" x1="48.8212" y1="29.3478" x2="35.664" y2="31.2417" gradientUnits="userSpaceOnUse">
<stop stop-color="#19FB9B"/>
<stop offset="1" stop-color="#8C01FA"/>
</linearGradient>
<linearGradient id="paint7_linear_1165_756" x1="37.2957" y1="29.8418" x2="47.8256" y2="29.8418" gradientUnits="userSpaceOnUse">
<stop stop-color="#C8A6FF"/>
<stop offset="1" stop-color="#69CFB5"/>
</linearGradient>
<linearGradient id="paint8_linear_1165_756" x1="45.2321" y1="33.7147" x2="22.3697" y2="39.0988" gradientUnits="userSpaceOnUse">
<stop stop-color="#19FB9B"/>
<stop offset="1" stop-color="#8C01FA"/>
</linearGradient>
<linearGradient id="paint9_linear_1165_756" x1="31.4306" y1="39.1304" x2="18.2734" y2="41.0243" gradientUnits="userSpaceOnUse">
<stop stop-color="#19FB9B"/>
<stop offset="1" stop-color="#8C01FA"/>
</linearGradient>
<linearGradient id="paint10_linear_1165_756" x1="19.9051" y1="39.6244" x2="30.435" y2="39.6244" gradientUnits="userSpaceOnUse">
<stop stop-color="#C8A6FF"/>
<stop offset="1" stop-color="#69CFB5"/>
</linearGradient>
<linearGradient id="paint11_linear_1165_756" x1="27.8747" y1="33.7147" x2="5.01231" y2="39.0988" gradientUnits="userSpaceOnUse">
<stop stop-color="#19FB9B"/>
<stop offset="1" stop-color="#8C01FA"/>
</linearGradient>
<linearGradient id="paint12_linear_1165_756" x1="14.039" y1="29.3478" x2="0.88182" y2="31.2417" gradientUnits="userSpaceOnUse">
<stop stop-color="#19FB9B"/>
<stop offset="1" stop-color="#8C01FA"/>
</linearGradient>
<linearGradient id="paint13_linear_1165_756" x1="2.5135" y1="29.8418" x2="13.0434" y2="29.8418" gradientUnits="userSpaceOnUse">
<stop stop-color="#C8A6FF"/>
<stop offset="1" stop-color="#69CFB5"/>
</linearGradient>
<linearGradient id="paint14_linear_1165_756" x1="8.89451" y1="14.1304" x2="6.20911" y2="14.1691" gradientUnits="userSpaceOnUse">
<stop stop-color="#19FB9B"/>
<stop offset="1" stop-color="#8C01FA"/>
</linearGradient>
<linearGradient id="paint15_linear_1165_756" x1="14.039" y1="9.78259" x2="0.88182" y2="11.6765" gradientUnits="userSpaceOnUse">
<stop stop-color="#19FB9B"/>
<stop offset="1" stop-color="#8C01FA"/>
</linearGradient>
<linearGradient id="paint16_linear_1165_756" x1="2.5135" y1="10.2767" x2="13.0434" y2="10.2767" gradientUnits="userSpaceOnUse">
<stop stop-color="#C8A6FF"/>
<stop offset="1" stop-color="#69CFB5"/>
</linearGradient>
<linearGradient id="paint17_linear_1165_756" x1="27.9139" y1="4.32874" x2="4.97348" y2="9.73265" gradientUnits="userSpaceOnUse">
<stop stop-color="#19FB9B"/>
<stop offset="1" stop-color="#8C01FA"/>
</linearGradient>
<linearGradient id="paint18_linear_1165_756" x1="31.4306" y1="2.69127e-07" x2="18.2734" y2="1.89392" gradientUnits="userSpaceOnUse">
<stop stop-color="#19FB9B"/>
<stop offset="1" stop-color="#8C01FA"/>
</linearGradient>
<linearGradient id="paint19_linear_1165_756" x1="19.9051" y1="0.494071" x2="30.435" y2="0.494071" gradientUnits="userSpaceOnUse">
<stop stop-color="#C8A6FF"/>
<stop offset="1" stop-color="#69CFB5"/>
</linearGradient>
<linearGradient id="paint20_linear_1165_756" x1="39.6188" y1="4.36694" x2="22.7328" y2="8.16019" gradientUnits="userSpaceOnUse">
<stop stop-color="#19FB9B"/>
<stop offset="1" stop-color="#8C01FA"/>
</linearGradient>
</defs>
</svg>
