<svg xmlns="http://www.w3.org/2000/svg" width="52" height="44" viewBox="0 0 52 44" fill="none">
<path d="M25.8636 43.1599C23.671 43.1599 21.8787 41.2957 21.8787 39.0056V38.8826H7.43107C3.54623 38.8826 0.380127 35.58 0.380127 31.5204V7.98584C0.380127 7.46537 0.789536 7.03953 1.28993 7.03953C1.79032 7.03953 2.19972 7.46537 2.19972 7.98584V31.5204C2.19972 34.5391 4.54701 36.99 7.43107 36.99H22.7885C23.2889 36.99 23.6983 37.4159 23.6983 37.9363V39.0056C23.6983 40.2548 24.6718 41.2673 25.8636 41.2673C27.0554 41.2673 28.0289 40.2548 28.0289 39.0056V37.9363C28.0289 37.4159 28.4383 36.99 28.9387 36.99H44.2961C47.1802 36.99 49.5275 34.5391 49.5275 31.5204V7.98584C49.5275 7.32342 49.018 6.7935 48.3902 6.7935H47.7079V32.3437C47.7079 33.9051 46.4796 35.1826 44.9785 35.1826H25.8727C25.3723 35.1826 24.9629 34.7567 24.9629 34.2363V2.05252H7.03076C6.3757 2.05252 5.84802 2.6203 5.84802 3.3111V32.0125C5.84802 32.7127 6.3757 33.271 7.03076 33.271H21.6785C22.1789 33.271 22.5883 33.6969 22.5883 34.2174C22.5883 34.7378 22.1789 35.1637 21.6785 35.1637H7.03076C5.37492 35.1637 4.02842 33.7442 4.02842 32.0125V3.3111C4.02842 1.5699 5.37492 0.159912 7.03076 0.159912H44.9694C46.4705 0.159912 47.6988 1.43742 47.6988 2.99882V4.89143H48.3811C50.0097 4.89143 51.338 6.27303 51.338 7.97637V31.5109C51.338 35.5706 48.1719 38.8732 44.287 38.8732H29.8394V38.9962C29.8394 41.2862 28.0562 43.1505 25.8545 43.1505L25.8636 43.1599ZM26.7734 33.2805H44.9694C45.4698 33.2805 45.8792 32.8547 45.8792 32.3342V2.99882C45.8792 2.47835 45.4698 2.05252 44.9694 2.05252H26.7734V33.2805ZM42.24 28.549H30.4126C29.9122 28.549 29.5028 28.1232 29.5028 27.6027C29.5028 27.0822 29.9122 26.6564 30.4126 26.6564H42.24C42.7404 26.6564 43.1498 27.0822 43.1498 27.6027C43.1498 28.1232 42.7404 28.549 42.24 28.549ZM18.5852 28.549H9.48721C8.98682 28.549 8.57742 28.1232 8.57742 27.6027C8.57742 27.0822 8.98682 26.6564 9.48721 26.6564H18.5852C19.0856 26.6564 19.495 27.0822 19.495 27.6027C19.495 28.1232 19.0856 28.549 18.5852 28.549ZM42.24 24.7638H30.4126C29.9122 24.7638 29.5028 24.3379 29.5028 23.8175C29.5028 23.297 29.9122 22.8712 30.4126 22.8712H42.24C42.7404 22.8712 43.1498 23.297 43.1498 23.8175C43.1498 24.3379 42.7404 24.7638 42.24 24.7638ZM20.4048 24.7638H15.8558C15.3554 24.7638 14.946 24.3379 14.946 23.8175C14.946 23.297 15.3554 22.8712 15.8558 22.8712H20.4048C20.9052 22.8712 21.3146 23.297 21.3146 23.8175C21.3146 24.3379 20.9052 24.7638 20.4048 24.7638ZM12.2166 24.7638H9.48721C8.98682 24.7638 8.57742 24.3379 8.57742 23.8175C8.57742 23.297 8.98682 22.8712 9.48721 22.8712H12.2166C12.717 22.8712 13.1264 23.297 13.1264 23.8175C13.1264 24.3379 12.717 24.7638 12.2166 24.7638ZM42.24 20.9786H30.4126C29.9122 20.9786 29.5028 20.5527 29.5028 20.0323C29.5028 19.5118 29.9122 19.086 30.4126 19.086H42.24C42.7404 19.086 43.1498 19.5118 43.1498 20.0323C43.1498 20.5527 42.7404 20.9786 42.24 20.9786ZM21.3146 20.9786H9.48721C8.98682 20.9786 8.57742 20.5527 8.57742 20.0323C8.57742 19.5118 8.98682 19.086 9.48721 19.086H21.3146C21.815 19.086 22.2244 19.5118 22.2244 20.0323C22.2244 20.5527 21.815 20.9786 21.3146 20.9786ZM17.4389 17.2407L9.48721 17.1934C8.98682 17.1934 8.57742 16.7675 8.58651 16.2376C8.58651 15.7171 8.99592 15.3008 9.49631 15.3008L17.448 15.3481C17.9483 15.3481 18.3578 15.7739 18.3487 16.3038C18.3487 16.8243 17.9392 17.2407 17.4389 17.2407ZM42.24 17.1934H36.7812C36.2808 17.1934 35.8714 16.7675 35.8714 16.2471C35.8714 15.7266 36.2808 15.3008 36.7812 15.3008H42.24C42.7404 15.3008 43.1498 15.7266 43.1498 16.2471C43.1498 16.7675 42.7404 17.1934 42.24 17.1934ZM33.142 17.1934H30.4126C29.9122 17.1934 29.5028 16.7675 29.5028 16.2471C29.5028 15.7266 29.9122 15.3008 30.4126 15.3008H33.142C33.6424 15.3008 34.0518 15.7266 34.0518 16.2471C34.0518 16.7675 33.6424 17.1934 33.142 17.1934ZM42.24 13.4082H30.4126C29.9122 13.4082 29.5028 12.9823 29.5028 12.4618C29.5028 11.9414 29.9122 11.5155 30.4126 11.5155H42.24C42.7404 11.5155 43.1498 11.9414 43.1498 12.4618C43.1498 12.9823 42.7404 13.4082 42.24 13.4082ZM13.1264 12.4618H10.397C8.89585 12.4618 7.66762 11.1843 7.66762 9.62294V6.78403C7.66762 5.22263 8.89585 3.94512 10.397 3.94512H13.1264C14.6276 3.94512 15.8558 5.22263 15.8558 6.78403V9.62294C15.8558 11.1843 14.6276 12.4618 13.1264 12.4618ZM10.397 5.83773C9.89662 5.83773 9.48721 6.26357 9.48721 6.78403V9.62294C9.48721 10.1434 9.89662 10.5692 10.397 10.5692H13.1264C13.6268 10.5692 14.0362 10.1434 14.0362 9.62294V6.78403C14.0362 6.26357 13.6268 5.83773 13.1264 5.83773H10.397ZM22.2244 10.5692H18.5852C18.0848 10.5692 17.6754 10.1434 17.6754 9.62294C17.6754 9.10247 18.0848 8.67664 18.5852 8.67664H22.2244C22.7248 8.67664 23.1342 9.10247 23.1342 9.62294C23.1342 10.1434 22.7248 10.5692 22.2244 10.5692ZM37.691 9.62294H30.4126C29.9122 9.62294 29.5028 9.1971 29.5028 8.67664C29.5028 8.15617 29.9122 7.73033 30.4126 7.73033H37.691C38.1914 7.73033 38.6008 8.15617 38.6008 8.67664C38.6008 9.1971 38.1914 9.62294 37.691 9.62294ZM22.2244 7.73033H18.5852C18.0848 7.73033 17.6754 7.3045 17.6754 6.78403C17.6754 6.26357 18.0848 5.83773 18.5852 5.83773H22.2244C22.7248 5.83773 23.1342 6.26357 23.1342 6.78403C23.1342 7.3045 22.7248 7.73033 22.2244 7.73033Z" fill="currentColor"/>
</svg>