<svg xmlns="http://www.w3.org/2000/svg" width="50" height="50" viewBox="0 0 50 50" fill="none">
<path d="M17.9688 18.75C15.342 18.75 12.7742 19.5289 10.5901 20.9883C8.406 22.4477 6.70371 24.5219 5.69848 26.9487C4.69325 29.3756 4.43024 32.046 4.9427 34.6223C5.45516 37.1986 6.72008 39.5651 8.57749 41.4225C10.4349 43.2799 12.8014 44.5448 15.3777 45.0573C17.954 45.5698 20.6244 45.3068 23.0513 44.3015C25.4781 43.2963 27.5523 41.594 29.0117 39.4099C30.4711 37.2258 31.25 34.658 31.25 32.0312C31.25 28.5088 29.8507 25.1307 27.36 22.64C24.8693 20.1493 21.4912 18.75 17.9688 18.75ZM17.9688 43.75C15.651 43.75 13.3853 43.0627 11.4582 41.775C9.53103 40.4874 8.02901 38.6571 7.14204 36.5158C6.25508 34.3745 6.02301 32.0183 6.47518 29.745C6.92735 27.4718 8.04345 25.3837 9.68235 23.7448C11.3212 22.1059 13.4093 20.9898 15.6825 20.5377C17.9558 20.0855 20.312 20.3176 22.4533 21.2045C24.5946 22.0915 26.4249 23.5935 27.7125 25.5207C29.0002 27.4478 29.6875 29.7135 29.6875 32.0312C29.6875 35.1393 28.4529 38.12 26.2552 40.3177C24.0575 42.5154 21.0768 43.75 17.9688 43.75Z" fill="currentColor"/>
<path d="M24.6094 27.7343L18.3594 24.1288C18.2406 24.0603 18.1059 24.0242 17.9687 24.0242C17.8316 24.0242 17.6969 24.0603 17.5781 24.1288L11.3281 27.7343C11.2095 27.8028 11.1109 27.9013 11.0423 28.0199C10.9738 28.1385 10.9376 28.2731 10.9375 28.4101V35.6327C10.9341 35.773 10.9686 35.9116 11.0374 36.034C11.1061 36.1564 11.2065 36.2579 11.3281 36.3281L17.5781 39.9374C17.6969 40.006 17.8316 40.0421 17.9687 40.0421C18.1059 40.0421 18.2406 40.006 18.3594 39.9374L24.6094 36.3281C24.728 36.2596 24.8265 36.1611 24.8951 36.0424C24.9637 35.9238 24.9998 35.7893 25 35.6523V28.414C25.0005 28.2763 24.9647 28.141 24.8961 28.0216C24.8275 27.9022 24.7286 27.8031 24.6094 27.7343ZM17.9687 25.7031L22.7773 28.4804L17.9687 31.2499L13.1601 28.4843L17.9687 25.7031ZM12.5 29.9101L17.1875 32.6171V37.8906L12.5 35.1796V29.9101ZM18.75 37.8906V32.6171L23.4375 29.9101V35.1796L18.75 37.8906Z" fill="currentColor"/>
<path d="M30.4688 6.25C23.0195 6.25 17.1875 8.98438 17.1875 12.5V16.4062C17.1875 16.6135 17.2698 16.8122 17.4163 16.9587C17.5628 17.1052 17.7615 17.1875 17.9688 17.1875C18.176 17.1875 18.3747 17.1052 18.5212 16.9587C18.6677 16.8122 18.75 16.6135 18.75 16.4062V15.4844C20.9688 17.4375 25.3359 18.75 30.4688 18.75C35.6016 18.75 39.9688 17.4453 42.1875 15.4844V22.7422C42.1875 24.4297 39.0625 26.5547 33.1016 27.3516C32.9066 27.3793 32.7292 27.4796 32.6051 27.6325C32.4809 27.7853 32.419 27.9794 32.4319 28.176C32.4447 28.3725 32.5313 28.5569 32.6743 28.6923C32.8173 28.8277 33.0062 28.9042 33.2031 28.9062H33.3047C37.3672 28.3672 40.457 27.2266 42.1875 25.7227V32.8555C42.1875 34.7031 38.6484 36.9219 32.7305 37.4297C32.5233 37.4385 32.3281 37.5292 32.1878 37.682C32.0475 37.8347 31.9736 38.0369 31.9824 38.2441C31.9912 38.4513 32.082 38.6466 32.2347 38.7868C32.3875 38.9271 32.5897 39.001 32.7969 38.9922H32.8633C39.2734 38.4336 43.75 35.9141 43.75 32.8555V12.5C43.75 8.98438 37.918 6.25 30.4688 6.25ZM30.4688 17.1875C23.5625 17.1875 18.75 14.7188 18.75 12.5C18.75 10.2812 23.5625 7.8125 30.4688 7.8125C37.375 7.8125 42.1875 10.2812 42.1875 12.5C42.1875 14.7188 37.375 17.1875 30.4688 17.1875Z" fill="currentColor"/>
</svg>