<svg xmlns="http://www.w3.org/2000/svg" width="25" height="26" viewBox="0 0 25 26" fill="none">
  <g clip-path="url(#clip0_716_1510)">
    <path fill-rule="evenodd" clip-rule="evenodd" d="M12.5 0C5.59375 0 0 5.8175 0 13C0 18.7525 3.57812 23.6112 8.54688 25.3337C9.17188 25.4475 9.40625 25.0575 9.40625 24.7162C9.40625 24.4075 9.39062 23.3837 9.39062 22.295C6.25 22.8962 5.4375 21.4987 5.1875 20.7675C5.04688 20.3937 4.4375 19.24 3.90625 18.9312C3.46875 18.6875 2.84375 18.0862 3.89062 18.07C4.875 18.0537 5.57812 19.0125 5.8125 19.4025C6.9375 21.3687 8.73438 20.8162 9.45312 20.475C9.5625 19.63 9.89062 19.0612 10.25 18.7362C7.46875 18.4112 4.5625 17.29 4.5625 12.3175C4.5625 10.9037 5.04688 9.73375 5.84375 8.82375C5.71875 8.49875 5.28125 7.16625 5.96875 5.37875C5.96875 5.37875 7.01562 5.0375 9.40625 6.71125C10.4062 6.41875 11.4688 6.2725 12.5313 6.2725C13.5938 6.2725 14.6563 6.41875 15.6563 6.71125C18.0469 5.02125 19.0938 5.37875 19.0938 5.37875C19.7812 7.16625 19.3438 8.49875 19.2188 8.82375C20.0156 9.73375 20.5 10.8875 20.5 12.3175C20.5 17.3062 17.5781 18.4112 14.7969 18.7362C15.25 19.1425 15.6406 19.9225 15.6406 21.1412C15.6406 22.88 15.625 24.2775 15.625 24.7162C15.625 25.0575 15.8594 25.4637 16.4844 25.3337C21.4219 23.6112 25 18.7362 25 13C25 5.8175 19.4062 0 12.5 0Z" fill="currentColor" fill-opacity="0.5"/>
  </g>
  <defs>
    <clipPath id="clip0_716_1510">
      <rect width="25" height="26" fill="currentColor"/>
    </clipPath>
  </defs>
</svg>