<svg width="35" height="28" viewBox="0 0 35 28" fill="none" xmlns="http://www.w3.org/2000/svg">
<path d="M12.9969 3.78264L11.4204 4.74512C10.0168 5.60141 8.81749 6.47132 7.75291 7.3984C4.57278 10.0694 1.84325 14.3849 2.90783 18.0047L2.9337 18.0973L1.07272 21.1372L0.898475 20.7982C0.589447 20.1924 0.355291 19.5512 0.206904 18.891C-1.20482 12.2911 4.84096 6.47813 11.2421 4.36258L12.9969 3.78128V3.78264Z" fill="currentColor"/>
<path d="M3.63469 27.9199C3.1269 27.9199 2.66404 27.6612 2.39857 27.2283C2.13583 26.7995 2.11269 26.2767 2.33595 25.8275L16.7405 0.871057C16.9923 0.375523 17.4756 0.0801086 18.0324 0.0801086C18.5892 0.0801086 19.0711 0.375523 19.3243 0.871057L33.7288 25.8275C33.9507 26.2767 33.9276 26.7995 33.6662 27.2269C33.4008 27.6599 32.9393 27.9185 32.4315 27.9185L31.3832 27.9144C30.8646 27.9117 30.2601 27.3944 29.7224 26.4932L18.031 5.93258L6.40777 26.3815C5.58551 27.9199 5.12129 27.9199 4.67068 27.9199H3.63332H3.63469Z" fill="currentColor"/>
<path d="M34.9993 11.4334C34.8632 15.3079 32.5366 19.1101 28.4539 22.146C27.8603 22.587 27.2409 23.0023 26.6092 23.3834C25.3582 24.1295 24.0404 24.7693 22.6967 25.2961C19.7466 26.4492 16.7026 27.0305 13.739 27.0305C12.4756 27.0305 11.2286 26.9243 10.0048 26.712L9.52148 26.6316L11.3947 23.461L11.5308 23.4733C14.7151 23.7878 18.3689 23.2364 21.8159 21.9295C22.9227 21.5102 23.9696 21.0269 24.928 20.4919C25.8224 19.9909 26.6623 19.445 27.4329 18.8597C29.5144 17.2955 32.0914 14.7048 32.5584 11.2755C33.1016 6.67958 28.9467 3.83571 24.8817 2.71259L22.9989 2.19119L24.9484 2.29738C27.6112 2.4376 30.0861 3.34018 31.9131 4.82814C33.9728 6.50669 35.0374 8.79242 34.9993 11.4334Z" fill="currentColor"/>
</svg>
