<svg xmlns="http://www.w3.org/2000/svg" width="43" height="43" viewBox="0 0 43 43" fill="none">
  <g clip-path="url(#clip0_891_799)">
    <path d="M23.0581 21.7687C23.7238 21.4202 24.2534 20.8586 24.5623 20.1736C24.8713 19.4886 24.9416 18.7199 24.7622 17.9902C24.5827 17.2606 24.1638 16.6121 23.5725 16.1486C22.9811 15.685 22.2514 15.4331 21.5 15.4331C20.7486 15.4331 20.0189 15.685 19.4275 16.1486C18.8362 16.6121 18.4173 17.2606 18.2378 17.9902C18.0584 18.7199 18.1287 19.4886 18.4377 20.1736C18.7466 20.8586 19.2762 21.4202 19.9419 21.7687C19.0235 22.0919 18.2279 22.6919 17.6646 23.486C17.1014 24.2802 16.7982 25.2294 16.7969 26.2031C16.7969 26.3813 16.8677 26.5521 16.9937 26.6781C17.1197 26.8041 17.2906 26.8749 17.4688 26.8749H25.5312C25.7094 26.8749 25.8803 26.8041 26.0063 26.6781C26.1323 26.5521 26.2031 26.3813 26.2031 26.2031C26.2018 25.2294 25.8986 24.2802 25.3354 23.486C24.7721 22.6919 23.9765 22.0919 23.0581 21.7687ZM21.5 16.7968C21.8987 16.7968 22.2884 16.915 22.6198 17.1365C22.9513 17.358 23.2096 17.6728 23.3622 18.0411C23.5148 18.4094 23.5547 18.8147 23.4769 19.2057C23.3991 19.5967 23.2072 19.9558 22.9253 20.2377C22.6434 20.5196 22.2842 20.7116 21.8932 20.7893C21.5022 20.8671 21.097 20.8272 20.7287 20.6746C20.3603 20.5221 20.0455 20.2637 19.8241 19.9323C19.6026 19.6008 19.4844 19.2111 19.4844 18.8124C19.4844 18.2779 19.6967 17.7652 20.0747 17.3872C20.4527 17.0092 20.9654 16.7968 21.5 16.7968ZM18.2078 25.5312C18.362 24.7718 18.774 24.089 19.374 23.5986C19.974 23.1082 20.7251 22.8403 21.5 22.8403C22.2749 22.8403 23.026 23.1082 23.626 23.5986C24.226 24.089 24.638 24.7718 24.7922 25.5312H18.2078Z" fill="currentColor"/>
    <path d="M35.6095 28.8905C34.0599 28.8893 32.5581 29.4263 31.3605 30.4096L28.1261 27.1752C29.4043 25.6869 30.1413 23.8097 30.217 21.8493L37.0782 21.5953C37.2695 22.2155 37.6803 22.7448 38.2337 23.0839C38.7871 23.4231 39.4451 23.549 40.0846 23.438C40.7241 23.327 41.3013 22.9868 41.708 22.4809C42.1147 21.9751 42.3232 21.3384 42.2943 20.69C42.2655 20.0416 42.0013 19.4259 41.5512 18.9582C41.1012 18.4905 40.4961 18.2029 39.8493 18.1491C39.2024 18.0954 38.5582 18.2792 38.0371 18.6662C37.516 19.0532 37.1539 19.6168 37.0184 20.2516L30.1733 20.5049C30.0267 19.2326 29.6021 18.0081 28.9296 16.9182C28.2571 15.8283 27.3532 14.8996 26.2818 14.198L27.5658 11.8639C28.5215 12.1974 29.5676 12.1598 30.4968 11.7584C31.4261 11.3569 32.1706 10.6211 32.5828 9.69657C32.995 8.77207 33.0448 7.72645 32.7224 6.76694C32.4 5.80743 31.7288 5.00408 30.842 4.51611C29.9551 4.02815 28.9173 3.89118 27.9342 4.13236C26.9511 4.37354 26.0946 4.97526 25.5342 5.81827C24.9739 6.66127 24.7508 7.68402 24.909 8.6838C25.0673 9.68359 25.5954 10.5874 26.3886 11.2162L25.104 13.5516C23.5933 12.8598 21.9156 12.6165 20.2706 12.8507C18.6256 13.0849 17.0824 13.7866 15.8248 14.8725L12.5903 11.6381C13.6832 10.3015 14.2206 8.59593 14.0912 6.87423C13.9619 5.15253 13.1757 3.54641 11.8953 2.38809C10.615 1.22977 8.93843 0.607875 7.21242 0.65103C5.48641 0.694186 3.84301 1.3991 2.62215 2.61995C1.40129 3.84081 0.696384 5.48421 0.653228 7.21022C0.610072 8.93624 1.23197 10.6128 2.39029 11.8932C3.54861 13.1735 5.15473 13.9597 6.87643 14.089C8.59813 14.2184 10.3037 13.681 11.6403 12.5882L14.8747 15.8226C14.0188 16.8107 13.3983 17.9802 13.06 19.2429C12.7217 20.5057 12.6744 21.8287 12.9216 23.1124L7.0205 24.7007C6.64644 23.9749 6.01895 23.4116 5.25709 23.1177C4.49522 22.8239 3.652 22.8199 2.88741 23.1066C2.12282 23.3933 1.49007 23.9507 1.10921 24.673C0.728353 25.3953 0.625892 26.2323 0.821268 27.0251C1.01664 27.818 1.49626 28.5115 2.16912 28.9742C2.84198 29.4368 3.66126 29.6364 4.4715 29.535C5.28175 29.4336 6.02659 29.0383 6.5647 28.4241C7.1028 27.8099 7.39673 27.0196 7.39071 26.203C7.39071 26.1358 7.37458 26.0687 7.36988 26.0015L13.275 24.4118C13.9548 26.3205 15.2745 27.9348 17.0099 28.9806L15.5876 31.8199C14.4576 31.4415 13.2262 31.5051 12.1413 31.998C11.0563 32.4909 10.1984 33.3765 9.74009 34.4765C9.2818 35.5766 9.25721 36.8094 9.67127 37.9268C10.0853 39.0442 10.9073 39.9633 11.9717 40.4991C13.0361 41.0349 14.264 41.1476 15.4082 40.8145C16.5524 40.4814 17.5279 39.7273 18.1384 38.7039C18.749 37.6805 18.9492 36.4639 18.6988 35.2988C18.4484 34.1337 17.766 33.1068 16.7889 32.4246L18.2079 29.5852C19.6917 30.1936 21.315 30.3792 22.8978 30.1215C24.4806 29.8638 25.9612 29.1728 27.1754 28.1253L30.4098 31.3597C29.4457 32.5409 28.9123 34.015 28.8972 35.5396C28.8822 37.0643 29.3864 38.5486 30.327 39.7486C31.2676 40.9487 32.5886 41.7929 34.0727 42.1424C35.5568 42.492 37.1156 42.3261 38.4929 41.6721C39.8702 41.018 40.984 39.9148 41.651 38.5437C42.318 37.1727 42.4986 35.6154 42.1631 34.1281C41.8275 32.6408 40.9958 31.3119 39.8048 30.36C38.6137 29.4081 37.1342 28.8899 35.6095 28.8905ZM39.6407 19.4843C39.9065 19.4843 40.1663 19.5631 40.3873 19.7107C40.6082 19.8584 40.7805 20.0683 40.8822 20.3138C40.9839 20.5593 41.0105 20.8295 40.9586 21.0902C40.9068 21.3508 40.7788 21.5903 40.5909 21.7782C40.403 21.9661 40.1635 22.0941 39.9029 22.146C39.6422 22.1978 39.372 22.1712 39.1265 22.0695C38.8809 21.9678 38.6711 21.7956 38.5234 21.5746C38.3758 21.3536 38.297 21.0938 38.297 20.828C38.297 20.4716 38.4385 20.1299 38.6905 19.8778C38.9425 19.6258 39.2843 19.4843 39.6407 19.4843ZM28.8907 5.3749C29.4222 5.3749 29.9418 5.53252 30.3838 5.82783C30.8258 6.12313 31.1702 6.54286 31.3736 7.03394C31.577 7.52501 31.6303 8.06538 31.5266 8.58671C31.4229 9.10803 31.1669 9.5869 30.7911 9.96275C30.4152 10.3386 29.9363 10.5946 29.415 10.6983C28.8937 10.802 28.3533 10.7487 27.8622 10.5453C27.3712 10.3419 26.9514 9.99745 26.6561 9.55549C26.3608 9.11354 26.2032 8.59394 26.2032 8.0624C26.2032 7.34963 26.4864 6.66605 26.9904 6.16205C27.4944 5.65805 28.1779 5.3749 28.8907 5.3749ZM4.03133 28.2187C3.63268 28.2187 3.24298 28.1004 2.91151 27.879C2.58004 27.6575 2.32169 27.3427 2.16914 26.9744C2.01658 26.6061 1.97666 26.2008 2.05444 25.8098C2.13221 25.4188 2.32418 25.0597 2.60607 24.7778C2.88796 24.4959 3.24711 24.3039 3.6381 24.2261C4.0291 24.1484 4.43437 24.1883 4.80268 24.3408C5.17099 24.4934 5.48578 24.7517 5.70726 25.0832C5.92874 25.4147 6.04696 25.8044 6.04696 26.203C6.04696 26.7376 5.8346 27.2503 5.45659 27.6283C5.07859 28.0063 4.56591 28.2187 4.03133 28.2187ZM17.4688 36.2812C17.4688 36.9456 17.2718 37.5951 16.9027 38.1475C16.5335 38.7 16.0089 39.1305 15.395 39.3848C14.7812 39.6391 14.1057 39.7056 13.4541 39.576C12.8024 39.4464 12.2038 39.1264 11.734 38.6566C11.2642 38.1868 10.9443 37.5882 10.8146 36.9365C10.685 36.2849 10.7515 35.6094 11.0058 34.9956C11.2601 34.3817 11.6906 33.8571 12.2431 33.4879C12.7955 33.1188 13.445 32.9218 14.1095 32.9218C15.0001 32.9228 15.8539 33.2771 16.4837 33.9069C17.1135 34.5367 17.4678 35.3905 17.4688 36.2812ZM2.01571 7.39052C2.01362 6.51719 2.22437 5.65651 2.62971 4.88294C3.03506 4.10938 3.6228 3.44623 4.34206 2.95089C5.06133 2.45554 5.89047 2.14292 6.75772 2.04008C7.62498 1.93723 8.50424 2.04726 9.31941 2.36064C10.1346 2.67402 10.8611 3.18131 11.4361 3.83862C12.0112 4.49593 12.4174 5.28345 12.6196 6.13305C12.8218 6.98264 12.814 7.86872 12.5968 8.71461C12.3795 9.56049 11.9595 10.3407 11.3729 10.9877C11.4039 10.9122 11.4205 10.8315 11.422 10.7499C11.4237 10.2203 11.3203 9.69563 11.1177 9.20629C10.9152 8.71694 10.6176 8.27264 10.2421 7.89913C9.97439 7.63141 9.67043 7.40254 9.33914 7.2192C9.70227 6.83848 9.94567 6.35955 10.0391 5.84179C10.1326 5.32403 10.0721 4.79023 9.865 4.30656C9.65793 3.8229 9.31344 3.41065 8.87426 3.12094C8.43509 2.83123 7.92053 2.6768 7.3944 2.6768C6.86828 2.6768 6.35372 2.83123 5.91454 3.12094C5.47536 3.41065 5.13088 3.8229 4.92381 4.30656C4.71673 4.79023 4.65618 5.32403 4.74966 5.84179C4.84314 6.35955 5.08653 6.83848 5.44966 7.2192C4.8171 7.56671 4.28944 8.07767 3.92177 8.69873C3.55409 9.31979 3.3599 10.0282 3.35946 10.7499C3.36082 10.8307 3.37676 10.9106 3.40649 10.9857C2.51216 10.0018 2.01634 8.72013 2.01571 7.39052ZM7.39071 6.71865C7.12494 6.71865 6.86514 6.63984 6.64416 6.49219C6.42318 6.34453 6.25095 6.13467 6.14924 5.88913C6.04754 5.64359 6.02093 5.37341 6.07278 5.11275C6.12463 4.85209 6.25261 4.61265 6.44053 4.42473C6.62846 4.2368 6.86789 4.10882 7.12855 4.05697C7.38922 4.00512 7.6594 4.03173 7.90494 4.13344C8.15048 4.23514 8.36034 4.40737 8.50799 4.62835C8.65565 4.84933 8.73446 5.10913 8.73446 5.3749C8.73446 5.73128 8.59288 6.07307 8.34088 6.32507C8.08888 6.57708 7.74709 6.71865 7.39071 6.71865ZM7.39071 8.0624C7.98652 8.0624 8.56544 8.26039 9.03646 8.62524C9.50749 8.9901 9.84393 9.50113 9.99288 10.078H4.78786C4.93757 9.50142 5.2743 8.99076 5.7453 8.62602C6.21631 8.26128 6.79499 8.06305 7.39071 8.0624ZM3.79618 11.3747C3.87106 11.4046 3.95074 11.4205 4.03133 11.4218H10.7501C10.8319 11.4206 10.9128 11.4042 10.9886 11.3734C10.0052 12.2681 8.72353 12.7639 7.39407 12.7639C6.0646 12.7639 4.78292 12.2681 3.79954 11.3734L3.79618 11.3747ZM14.1095 21.4999C14.1095 20.0382 14.5429 18.6093 15.355 17.3939C16.1671 16.1785 17.3214 15.2312 18.6718 14.6719C20.0223 14.1125 21.5083 13.9661 22.9419 14.2513C24.3756 14.5365 25.6924 15.2403 26.726 16.2739C27.7596 17.3075 28.4635 18.6244 28.7487 20.0581C29.0339 21.4917 28.8875 22.9777 28.3281 24.3282C27.7688 25.6786 26.8215 26.8329 25.6061 27.645C24.3907 28.4571 22.9618 28.8905 21.5001 28.8905C19.5407 28.8882 17.6622 28.1088 16.2767 26.7233C14.8912 25.3378 14.1118 23.4593 14.1095 21.4999ZM32.0149 39.5935C32.0898 39.6233 32.1695 39.6393 32.2501 39.6405H38.9688C39.0507 39.6394 39.1315 39.623 39.2073 39.5922C38.224 40.4868 36.9423 40.9826 35.6128 40.9826C34.2834 40.9826 33.0017 40.4868 32.0183 39.5922L32.0149 39.5935ZM35.6095 34.9374C35.3437 34.9374 35.0839 34.8586 34.8629 34.7109C34.6419 34.5633 34.4697 34.3534 34.368 34.1079C34.2663 33.8623 34.2397 33.5922 34.2915 33.3315C34.3434 33.0708 34.4714 32.8314 34.6593 32.6435C34.8472 32.4555 35.0866 32.3276 35.3473 32.2757C35.608 32.2239 35.8782 32.2505 36.1237 32.3522C36.3692 32.4539 36.5791 32.6261 36.7267 32.8471C36.8744 33.0681 36.9532 33.3279 36.9532 33.5937C36.9532 33.95 36.8116 34.2918 36.5596 34.5438C36.3076 34.7958 35.9658 34.9374 35.6095 34.9374ZM35.6095 36.2812C36.2053 36.2811 36.7842 36.4791 37.2552 36.844C37.7262 37.2088 38.0627 37.7199 38.2116 38.2968H33.0066C33.1563 37.7202 33.493 37.2095 33.9641 36.8448C34.4351 36.48 35.0137 36.2818 35.6095 36.2812ZM39.591 39.2065C39.6222 39.131 39.6391 39.0503 39.6407 38.9687C39.6424 38.4391 39.539 37.9144 39.3365 37.425C39.134 36.9357 38.8363 36.4914 38.4609 36.1179C38.1931 35.8502 37.8892 35.6213 37.5579 35.4379C37.921 35.0572 38.1644 34.5783 38.2579 34.0605C38.3514 33.5428 38.2908 33.009 38.0837 32.5253C37.8767 32.0416 37.5322 31.6294 37.093 31.3397C36.6538 31.05 36.1393 30.8956 35.6132 30.8956C35.087 30.8956 34.5725 31.05 34.1333 31.3397C33.6941 31.6294 33.3496 32.0416 33.1426 32.5253C32.9355 33.009 32.8749 33.5428 32.9684 34.0605C33.0619 34.5783 33.3053 35.0572 33.6684 35.4379C33.0359 35.7855 32.5082 36.2964 32.1405 36.9175C31.7728 37.5385 31.5786 38.2469 31.5782 38.9687C31.5796 39.0494 31.5955 39.1293 31.6252 39.2045C30.9266 38.4334 30.4668 37.4761 30.3016 36.4487C30.1364 35.4214 30.273 34.3682 30.6948 33.4169C31.1165 32.4657 31.8053 31.6573 32.6775 31.0899C33.5497 30.5225 34.5679 30.2205 35.6085 30.2205C36.649 30.2205 37.6672 30.5225 38.5394 31.0899C39.4116 31.6573 40.1004 32.4657 40.5221 33.4169C40.9439 34.3682 41.0805 35.4214 40.9153 36.4487C40.7501 37.4761 40.2903 38.4334 39.5917 39.2045L39.591 39.2065Z" fill="currentColor"/>
  </g>
  <defs>
    <clipPath id="clip0_891_799">
      <rect width="43" height="43" fill="currentColor"/>
    </clipPath>
  </defs>
</svg>