<svg xmlns="http://www.w3.org/2000/svg" width="27" height="22" viewBox="0 0 27 22" fill="none">
  <g clip-path="url(#clip0_716_1514)">
    <path fill-rule="evenodd" clip-rule="evenodd" d="M0.476338 10.5485L6.69724 12.722L9.10512 19.9703C9.25878 20.4343 9.86551 20.6063 10.2679 20.298L13.7355 17.6515C14.0983 17.3743 14.6163 17.361 14.9965 17.6189L21.2507 21.8695C21.6816 22.1616 22.2915 21.9421 22.3992 21.4544L26.9837 0.827234C27.1009 0.294988 26.5433 -0.148303 26.0015 0.0473971L0.470001 9.26608C-0.160484 9.49291 -0.154148 10.3276 0.477922 10.55L0.476338 10.5485ZM8.71701 11.5641L20.8752 4.55592C21.0939 4.4299 21.3188 4.70714 21.1303 4.87023L11.0964 13.5997C10.7431 13.9066 10.5166 14.3187 10.4516 14.765L10.1095 17.1356C10.0635 17.4514 9.58987 17.484 9.49482 17.1771L8.17999 12.8539C8.02949 12.3602 8.24969 11.8339 8.71542 11.5656L8.71701 11.5641Z" fill="currentColor" fill-opacity="0.5"/>
  </g>
  <defs>
    <clipPath id="clip0_716_1514">
      <rect width="27" height="22" fill="currentColor"/>
    </clipPath>
  </defs>
</svg>